<svg xmlns="http://www.w3.org/2000/svg" viewBox="0 0 1079 411"><defs><style>.cls-1{fill:#bde5e4;}.cls-2{fill:#c1c1c1;}.cls-3{fill:#b5adac;}.cls-4{fill:#1d3837;}.cls-5{fill:#40605e;}.cls-6{fill:#678480;}.cls-7{fill:#95adaa;}.cls-8{fill:#2e5150;}.cls-38,.cls-41,.cls-43,.cls-9{isolation:isolate;}.cls-10{fill:#95b7b6;}.cls-11{fill:#fdc259;}.cls-12{fill:#af781e;}.cls-13{fill:#e59585;}.cls-14{fill:#db5f3e;}.cls-15{fill:#063c3b;}.cls-16{fill:#efab3c;}.cls-17{fill:#d3ede8;}.cls-18{fill:#d0a14a;}.cls-19{fill:#fff;}.cls-20{fill:#d5eded;}.cls-21{fill:#002633;}.cls-22{fill:#185956;}.cls-23,.cls-24,.cls-29,.cls-30{fill:none;stroke-miterlimit:10;}.cls-23{stroke:#231f20;}.cls-24,.cls-30{stroke:#fff;}.cls-24{stroke-width:0.75px;stroke-dasharray:4;}.cls-25{fill:#ffdb8f;}.cls-26{fill:#8d99a3;}.cls-27{fill:#344f5c;}.cls-28{fill:#acb5bd;}.cls-29{stroke:#063c3b;}.cls-30{stroke-width:0.62px;stroke-dasharray:3.29;}.cls-31{fill:#c6916a;}.cls-32{fill:#ecbb90;}.cls-33{fill:#e2af8a;}.cls-34{fill:#e6ab77;}.cls-35{fill:#4f4f4f;}.cls-36{fill:#4a4a4a;}.cls-37{fill:#3d3d3d;}.cls-38{fill:#545e5d;opacity:0.23;}.cls-39{fill:#c9c9c9;}.cls-40{fill:#4a4d51;}.cls-41{fill:#36383a;opacity:0.45;}.cls-42{fill:#4b2e10;}.cls-43{fill:#3d240f;opacity:0.87;}</style></defs><title>Asset 2</title><g id="Layer_2" data-name="Layer 2"><g id="Layer_1-2" data-name="Layer 1"><rect class="cls-1" width="1079" height="410.1"/><path class="cls-2" d="M379.9,217l-.3,1.7-8.5-6.6-8.3,10.7h2.1a4.15,4.15,0,0,1,2.5.8,5.42,5.42,0,0,1,2,4.8h0a8,8,0,0,1-1.4,3.8,7.48,7.48,0,0,1-4.7,3.2,4.69,4.69,0,0,1-3.5-.7,4.82,4.82,0,0,1-1.9-2.9l-.5-2.2-8.6,11.1,9.5,7.4-1.8.6a4.29,4.29,0,0,0-2.9,3.8,7.29,7.29,0,0,0,2.8,6,8,8,0,0,0,4.8,1.9,5,5,0,0,0,3.8-1.6,4.3,4.3,0,0,0,1-2.5l.2-2,10,7.8,8.6-11.1.5,2.2a4.31,4.31,0,0,0,1.9,2.9,4.69,4.69,0,0,0,3.5.7,7.48,7.48,0,0,0,4.7-3.2,8,8,0,0,0,1.4-3.8h0a5,5,0,0,0-2-4.8,4.38,4.38,0,0,0-2.5-.8h-2.1l8.4-10.7-10.3-8.1,1.6-.7a4.31,4.31,0,0,0,1.7-1.3,5,5,0,0,0,.9-2.4,7.13,7.13,0,0,0-2.9-6,7.43,7.43,0,0,0-4.8-1.7A4.72,4.72,0,0,0,381,215,3.12,3.12,0,0,0,379.9,217Z"/><path class="cls-3" d="M389.7,224.7a4.31,4.31,0,0,0,1.7-1.3,5,5,0,0,0,.9-2.4,7.13,7.13,0,0,0-2.9-6,7.43,7.43,0,0,0-4.8-1.7,4.72,4.72,0,0,0-3.8,1.7,6.11,6.11,0,0,0-.9,2l-.3,1.7-8.5-6.6-8.3,10.7h2.1a4.15,4.15,0,0,1,2.5.8,5.42,5.42,0,0,1,2,4.8h0a8,8,0,0,1-1.4,3.8,7.48,7.48,0,0,1-4.7,3.2,4.69,4.69,0,0,1-3.5-.7,4.82,4.82,0,0,1-1.9-2.9l-.5-2.2-6.3,8.1a107.08,107.08,0,0,0,38.4-11.2l-1.5-1.2Z"/><path class="cls-4" d="M486,241.6H444.6a5,5,0,0,1-5-5V222.9a5,5,0,0,1,5-5H486a5,5,0,0,1,5,5v13.7A5.08,5.08,0,0,1,486,241.6Z"/><path class="cls-5" d="M551.3,314.2H509.9a5,5,0,0,1-5-5V295.5a5,5,0,0,1,5-5h41.4a5,5,0,0,1,5,5v13.7A5.08,5.08,0,0,1,551.3,314.2Z"/><path class="cls-6" d="M449.7,348.8H408.3a5,5,0,0,1-5-5V330.1a5,5,0,0,1,5-5h41.4a5,5,0,0,1,5,5v13.7A5,5,0,0,1,449.7,348.8Z"/><path class="cls-7" d="M418.3,389.3H376.9a5,5,0,0,1-5-5V370.6a5,5,0,0,1,5-5h41.4a5,5,0,0,1,5,5v13.7A5,5,0,0,1,418.3,389.3Z"/><path class="cls-7" d="M479.9,389.3H438.5a5,5,0,0,1-5-5V370.6a5,5,0,0,1,5-5h41.4a5,5,0,0,1,5,5v13.7A5,5,0,0,1,479.9,389.3Z"/><path class="cls-8" d="M551.1,278.1H509.7a5,5,0,0,1-5-5V259.4a5,5,0,0,1,5-5h41.4a5,5,0,0,1,5,5v13.7A5,5,0,0,1,551.1,278.1Z"/><path class="cls-5" d="M451.2,313.4H409.8a5,5,0,0,1-5-5V294.7a5,5,0,0,1,5-5h41.4a5,5,0,0,1,5,5v13.7A5,5,0,0,1,451.2,313.4Z"/><path class="cls-8" d="M485.6,277.8H444.2a5,5,0,0,1-5-5V259.1a5,5,0,0,1,5-5h41.4a5,5,0,0,1,5,5v13.7A5,5,0,0,1,485.6,277.8Z"/><g class="cls-9"><path class="cls-8" d="M131.66,50.71a3.38,3.38,0,0,1,2.24,1,2.83,2.83,0,0,1,1.14,2,8.42,8.42,0,0,1-.3,2.1c-.2.77-.52,1.72-1,2.87S132.91,61,132.47,62s-1,2.5-1.73,4.25-1.34,3.31-1.86,4.68-1.13,3-1.77,4.85-1.19,3.39-1.61,4.57-.88,2.35-1.36,3.48q-1.4,3.4-2.7,3.4c-.4,0-1-.37-1.65-1.1a5.92,5.92,0,0,1-1.41-2.2,151.36,151.36,0,0,1-3.06-16q-1.92-12.19-1.91-14.7c0-1.67.36-2.5,1.07-2.5a4,4,0,0,1,2.78,1.45A9.69,9.69,0,0,1,119.49,56a25.21,25.21,0,0,1,.62,4.22c.2,2.15.43,4.82.71,8s.58,5.91.9,8.18q4-13.69,6.34-19.7T131.66,50.71Z"/><path class="cls-8" d="M137.94,61.56c.93,0,1.76.67,2.48,2a8,8,0,0,1,1.1,3.85,56.8,56.8,0,0,1-1.37,6.82q-1.38,5.88-2.73,11.13-.46,2-1.95,2a1.93,1.93,0,0,1-1.53-.83,3.38,3.38,0,0,1-.65-2.15,51.33,51.33,0,0,1,1-6.6q1-5.26,1.55-9a52,52,0,0,1,1-5.45C137.15,62.13,137.52,61.56,137.94,61.56Zm-.6-6.25a4.82,4.82,0,0,1,.94-2.68c.62-.91,1.23-1.37,1.83-1.37s1.3.9,2.12,2.7a11,11,0,0,1,1.24,3.92,2.59,2.59,0,0,1-.64,1.88,1.85,1.85,0,0,1-1.31.65c-.77,0-1.66-.63-2.67-1.9A5.67,5.67,0,0,1,137.34,55.31Z"/><path class="cls-8" d="M156.47,61.61c1,0,2,.75,3,2.25a7.63,7.63,0,0,1,1.47,4c0,.8-.28,1.2-.83,1.2a3.41,3.41,0,0,1-1.4-.48,4,4,0,0,0-1.85-.47,7.7,7.7,0,0,0-2.74.8c-1.2.53-1.81,1.23-1.81,2.1,0,.33.36.82,1.08,1.45s1.49,1.28,2.34,1.95a10.29,10.29,0,0,1,2.35,2.77,7.38,7.38,0,0,1,1.07,3.85q0,2.08-2.4,4.18a8.33,8.33,0,0,1-5.65,2.1,8.62,8.62,0,0,1-5.55-1.85q-2.29-1.85-2.3-3.8c0-1.3.42-1.95,1.27-1.95a2.32,2.32,0,0,1,1.23.5,8.17,8.17,0,0,0,5,1.45c2,0,3-.33,3-1a3.46,3.46,0,0,0-1.13-2.23,22.13,22.13,0,0,0-2.46-2.27,13.54,13.54,0,0,1-2.47-2.58,5,5,0,0,1-1.13-3q0-2.7,3.89-5.88T156.47,61.61Z"/><path class="cls-8" d="M166.85,61.56c.92,0,1.75.67,2.48,2a8,8,0,0,1,1.09,3.85,54.62,54.62,0,0,1-1.37,6.82q-1.37,5.88-2.72,11.13-.48,2-2,2a1.93,1.93,0,0,1-1.53-.83,3.32,3.32,0,0,1-.66-2.15,50.23,50.23,0,0,1,1-6.6q1-5.26,1.55-9t1-5.45C166.06,62.13,166.42,61.56,166.85,61.56Zm-.6-6.25a4.8,4.8,0,0,1,.93-2.68c.63-.91,1.24-1.37,1.83-1.37s1.31.9,2.13,2.7a11.13,11.13,0,0,1,1.23,3.92,2.59,2.59,0,0,1-.63,1.88,1.89,1.89,0,0,1-1.32.65c-.77,0-1.65-.63-2.66-1.9A5.61,5.61,0,0,1,166.25,55.31Z"/><path class="cls-8" d="M175.57,67.11q3.09-5.59,6.1-5.6a6.21,6.21,0,0,1,5.09,2.67,10.25,10.25,0,0,1,2.07,6.45,22.29,22.29,0,0,1-1.43,7.68,17.27,17.27,0,0,1-4,6.47,7.74,7.74,0,0,1-5.52,2.58q-2.19,0-3.78-2.45a10.7,10.7,0,0,1-1.59-6A24.25,24.25,0,0,1,175.57,67.11ZM182,77.41a17.21,17.21,0,0,0,1.59-6.85,9.51,9.51,0,0,0-.71-4.4c-1.14.83-2.28,2.58-3.4,5.25a18.42,18.42,0,0,0-1.69,7,9.22,9.22,0,0,0,.48,3.83Q180.45,81.06,182,77.41Z"/><path class="cls-8" d="M205.45,61.56a4.43,4.43,0,0,1,3.64,2.32,8.71,8.71,0,0,1,1.57,5,38.46,38.46,0,0,1-1.09,8.87,32.36,32.36,0,0,1-2.39,7.13c-.86,1.67-1.73,2.5-2.62,2.5s-1.33-.78-1.33-2.35a39,39,0,0,1,1.31-7.25,34.56,34.56,0,0,0,1-6.45c0-1.3-.13-2-.4-2a1.36,1.36,0,0,0-1,.65c-.33.43-.6.82-.82,1.15s-.45.76-.73,1.27-.52,1-.72,1.4l-.75,1.6c-.31.65-.55,1.19-.74,1.6l-.71,1.63q-3.71,8.7-5.81,8.7c-.55,0-1.26-.61-2.11-1.83a5.78,5.78,0,0,1-1.27-2.67,10.41,10.41,0,0,1,.58-2.38c.38-1.21.66-2.15.83-2.8a19.82,19.82,0,0,0,.44-2.07c.12-.73.22-1.53.3-2.38s.14-1.5.18-2,.08-1.2.14-2.2a57.16,57.16,0,0,1,.61-7.2c.18-.47.37-.7.58-.7a3.92,3.92,0,0,1,2.9,1.57,4.56,4.56,0,0,1,1.39,2.88,44.84,44.84,0,0,1-1.27,8.9c1.72-3.8,3.3-6.91,4.71-9.33S204.47,61.56,205.45,61.56Z"/></g><g class="cls-9"><path class="cls-8" d="M427.38,84.84c-2,0-3.71-1.2-5.25-3.62A13.39,13.39,0,0,1,419.82,74a34.23,34.23,0,0,1,1.39-9.42,36,36,0,0,1,3.48-8.35,24.93,24.93,0,0,1,4.6-5.8c1.67-1.52,3.2-2.28,4.61-2.28q3.86,0,6.32,4.13a17.76,17.76,0,0,1,2.47,9.27A28.4,28.4,0,0,1,440.62,72,27.3,27.3,0,0,1,434.91,81C432.49,83.58,430,84.84,427.38,84.84Zm3.93-8.62a24,24,0,0,0,4-6.5A18.86,18.86,0,0,0,437,62.19a16.71,16.71,0,0,0-.72-5.55c-.47-1.3-1.14-2-2-2s-2,1-3.32,2.88a30.61,30.61,0,0,0-3.7,7.52,26.61,26.61,0,0,0-1.65,8.9,10.7,10.7,0,0,0,.47,3.48q.48,1.32,1.2,1.32C428.45,78.79,429.78,77.94,431.31,76.22Z"/><path class="cls-8" d="M459.58,59.14q1.83,0,3.48,2.55a9,9,0,0,1,1.65,4.85,21.36,21.36,0,0,1-.83,5.4,34.6,34.6,0,0,1-2.23,6,16.35,16.35,0,0,1-3.5,4.9,6.32,6.32,0,0,1-4.39,2c-1.53,0-3.26-.91-5.19-2.75-.53,1.87-1,2.8-1.31,2.8-.56,0-1.26-.58-2.11-1.75a5.32,5.32,0,0,1-1.27-2.85,60.63,60.63,0,0,1,1.31-7.2q3.93-18.3,3.94-26.5c0-1,.38-1.5,1.15-1.5.61,0,1.43.73,2.46,2.18a7.1,7.1,0,0,1,1.55,4.07,73.42,73.42,0,0,1-2,13.85Q456.8,59.15,459.58,59.14Zm-6.44,20q2.19,0,4.48-4.3a17.92,17.92,0,0,0,2.28-8.45c0-.2,0-.32-.1-.37a1.08,1.08,0,0,0-.54-.08q-2.17,0-4.67,3.3a34.18,34.18,0,0,0-4.39,8.25A4.59,4.59,0,0,0,453.14,79.09Z"/><path class="cls-8" d="M479.38,59.14c1,0,2,.75,3,2.25a7.65,7.65,0,0,1,1.48,4q0,1.2-.84,1.2a3.33,3.33,0,0,1-1.39-.47,4,4,0,0,0-1.85-.48,7.64,7.64,0,0,0-2.74.8c-1.21.54-1.81,1.24-1.81,2.1,0,.34.36.82,1.07,1.45s1.5,1.29,2.35,1.95A10.33,10.33,0,0,1,481,74.77a7.27,7.27,0,0,1,1.08,3.85c0,1.38-.81,2.77-2.41,4.17a8.29,8.29,0,0,1-5.64,2.1A8.55,8.55,0,0,1,468.45,83q-2.31-1.85-2.31-3.8c0-1.3.43-1.95,1.28-1.95a2.32,2.32,0,0,1,1.23.5,8.13,8.13,0,0,0,5,1.45c2,0,3-.33,3-1A3.51,3.51,0,0,0,475.43,76,21.39,21.39,0,0,0,473,73.74a13.14,13.14,0,0,1-2.46-2.57,5,5,0,0,1-1.14-3c0-1.8,1.3-3.75,3.9-5.87S477.9,59.14,479.38,59.14Z"/><path class="cls-8" d="M494.63,68.82q-.61,2.43-1.51,6.07c-.6,2.44-.9,3.73-.9,3.88s.22.22.66.22A11.07,11.07,0,0,0,496,77.87a13.42,13.42,0,0,1,2.9-1.13c.67,0,1,.57,1,1.7s-.89,2.5-2.67,4.08a8.29,8.29,0,0,1-5.56,2.37,4.75,4.75,0,0,1-3-1.75,5.06,5.06,0,0,1-1.75-3.55,33.89,33.89,0,0,1,1.21-6.32q1.22-4.83,1.65-6.63a7.68,7.68,0,0,1-2.35.55c-.53,0-1.08-.45-1.67-1.37a4.94,4.94,0,0,1-.87-2.63q0-1.59,6.16-2.7a50.46,50.46,0,0,0,.76-8.05c0-1,.39-1.5,1.19-1.5a4.42,4.42,0,0,1,2.64,1.58,4.43,4.43,0,0,1,1.61,3.1,25,25,0,0,1-.51,4.27c1.27-.06,2.24-.1,2.9-.1,2,0,3,.57,3,1.7,0,.74-.57,1.36-1.73,1.88A34.06,34.06,0,0,1,495.56,65Q495.25,66.39,494.63,68.82Z"/><path class="cls-8" d="M520.1,70.69a2.35,2.35,0,0,1,.71,1.45,15.18,15.18,0,0,1-.48,2.7c-.31,1.37-.53,2.43-.63,3.18s-.19,1.34-.26,1.77-.11.78-.14,1-.07.56-.14.92-.12.66-.16.88-.09.47-.16.75a2.56,2.56,0,0,1-.22.65,4.66,4.66,0,0,1-.27.47.86.86,0,0,1-.8.4c-.37,0-.83-.46-1.37-1.4a10.86,10.86,0,0,1-1.21-3.4q-3.74,4.8-6.29,4.8-1.71,0-3.69-2.37a7.4,7.4,0,0,1-2-4.75A20.62,20.62,0,0,1,504.71,71a31.67,31.67,0,0,1,4.67-8.15c2-2.5,3.93-3.75,5.87-3.75q1.66,0,3.85,2.45T521.29,66A11.68,11.68,0,0,1,520.1,70.69Zm-11.57,7.9c1.06,0,2.47-.9,4.23-2.72A12.26,12.26,0,0,0,516,69a.71.71,0,0,1,.68-.7c-.08-1.9-.34-2.85-.76-2.85q-1.59,0-3.56,2.6a26.64,26.64,0,0,0-3.22,5.55,12.93,12.93,0,0,0-1.25,4.35.9.9,0,0,0,.1.53C508.09,78.55,508.26,78.59,508.53,78.59Z"/><path class="cls-8" d="M523.48,77a20.31,20.31,0,0,1,1.74-7.7,23.45,23.45,0,0,1,4.6-7.2q2.83-3,5.58-3c.93,0,1.89.76,2.87,2.28a7.74,7.74,0,0,1,1.47,4.07c0,.87-.32,1.3-1,1.3a2.66,2.66,0,0,1-1.31-.55,3.14,3.14,0,0,0-1.71-.55c-.58,0-1.41.63-2.48,1.88a20.21,20.21,0,0,0-2.87,4.5,10.53,10.53,0,0,0-1.25,4.12,2.84,2.84,0,0,0,.46,2,3.51,3.51,0,0,0,2.22.45,12.06,12.06,0,0,0,3.23-.4,8.7,8.7,0,0,0,2.14-.82,2.52,2.52,0,0,1,1.25-.43c.75,0,1.12.4,1.12,1.2q0,2.2-3.06,4.48a10.22,10.22,0,0,1-6.13,2.27c-1.3,0-2.77-.9-4.43-2.72S523.48,78.64,523.48,77Z"/><path class="cls-8" d="M551,47.29a7.48,7.48,0,0,1,1.51,4.2c0,1.34-.16,3.71-.48,7.13s-.65,6.14-1,8.17q-3.3,18.1-4.61,18.1c-.59,0-1.31-.59-2.17-1.77A5.46,5.46,0,0,1,543,80.19c0-.06.36-1.8,1.07-5.2s1.44-7.77,2.17-13.12a113.48,113.48,0,0,0,1.09-15.33c0-1,.41-1.45,1.23-1.45C549.16,45.09,550,45.83,551,47.29Z"/><path class="cls-8" d="M568.66,72.84a9,9,0,0,1-5.42,2,17.18,17.18,0,0,1-4.58-.5,10.44,10.44,0,0,0-.36,2.7,3.82,3.82,0,0,0,.36,1.93c.24.38.84.57,1.79.57a16.35,16.35,0,0,0,5.11-.7c1.42-.46,2.15-.7,2.21-.7,1.08,0,1.63.45,1.63,1.35,0,1.3-.86,2.54-2.57,3.7a10.22,10.22,0,0,1-5.92,1.75,6.44,6.44,0,0,1-5.39-2.65,10,10,0,0,1-2-6.27,19.39,19.39,0,0,1,1.69-7.58,22.1,22.1,0,0,1,4.24-6.62c1.69-1.78,3.38-2.68,5.07-2.68s3.24,1,4.67,3.13a11,11,0,0,1,2.15,6.22C571.31,70.08,570.42,71.54,568.66,72.84Zm-2.8-6.65a2.28,2.28,0,0,0-1.57-1c-.49,0-1.12.45-1.89,1.33A15.79,15.79,0,0,0,560.21,70a7.07,7.07,0,0,0,1,.05q5.44,0,5.44-2.4A2.7,2.7,0,0,0,565.86,66.19Z"/><path class="cls-8" d="M585.58,59.14c1,0,2,.75,3,2.25a7.63,7.63,0,0,1,1.47,4c0,.8-.28,1.2-.83,1.2a3.33,3.33,0,0,1-1.39-.47,4,4,0,0,0-1.85-.48,7.68,7.68,0,0,0-2.75.8q-1.8.81-1.8,2.1c0,.34.35.82,1.07,1.45s1.5,1.29,2.34,1.95a10.35,10.35,0,0,1,2.35,2.78,7.26,7.26,0,0,1,1.07,3.85q0,2.07-2.4,4.17a8.33,8.33,0,0,1-5.65,2.1A8.52,8.52,0,0,1,574.65,83q-2.31-1.85-2.31-3.8c0-1.3.42-1.95,1.27-1.95a2.27,2.27,0,0,1,1.23.5,8.17,8.17,0,0,0,4.95,1.45c2,0,3-.33,3-1A3.49,3.49,0,0,0,581.62,76a20.51,20.51,0,0,0-2.46-2.28,13.47,13.47,0,0,1-2.47-2.57,5.06,5.06,0,0,1-1.13-3c0-1.8,1.3-3.75,3.9-5.87S584.09,59.14,585.58,59.14Z"/></g><g class="cls-9"><path class="cls-8" d="M792.2,65.17a41.31,41.31,0,0,0,4.53-.28c1.62-.18,2.62-.28,3-.28a1.21,1.21,0,0,1,.92.36,1.18,1.18,0,0,1,.33.85q0,2.19-3.3,3.5a22.66,22.66,0,0,1-7,1.5,43,43,0,0,0-1.55,7.65c0,.56.22.85.67.85a31.38,31.38,0,0,0,9.35-1.5,11.74,11.74,0,0,1,1.86-.55c.51,0,.76.45.76,1.34a4.63,4.63,0,0,1-2.11,3.5,15.87,15.87,0,0,1-5.29,2.71,20.94,20.94,0,0,1-6.24,1,4.29,4.29,0,0,1-3.3-1.73,6,6,0,0,1-1.47-4q0-2.33,2-11.68a82.63,82.63,0,0,0,2.17-14.09,2.63,2.63,0,0,1,0-.6,2.94,2.94,0,0,1,.16-1.1,2.76,2.76,0,0,1,2.42-1.78,45.48,45.48,0,0,1,7.16-.37q8.58,0,8.58,2.4c0,1-.7,1.75-2.1,2.15a34.62,34.62,0,0,1-3.94.75,35.73,35.73,0,0,0-6.88,1.6,38.48,38.48,0,0,1-.95,7.85Z"/><path class="cls-8" d="M820.31,84.36c0,1.24-.44,1.86-1.31,1.86q-2.16,0-5.65-6.61-4.53,6.61-6.08,6.61a2.67,2.67,0,0,1-2-1.33,4.14,4.14,0,0,1-1-2.32,3.49,3.49,0,0,1,.84-1.25,73.24,73.24,0,0,0,5.53-7.46c-1.14-2.59-2.11-5.08-2.91-7.44a22.08,22.08,0,0,1-1.19-4.33,7.34,7.34,0,0,1,0-1,.68.68,0,0,1,.72-.65,8.59,8.59,0,0,1,3.51.82c1.24.55,1.85,1.19,1.85,1.93a16.79,16.79,0,0,0,1.2,5.1,40.86,40.86,0,0,1,3.95-6.1c1-1.2,1.86-1.81,2.51-1.81s1.38.49,2.18,1.46a4.26,4.26,0,0,1,1.22,2.6,1.8,1.8,0,0,1-.36,1,9.33,9.33,0,0,1-1.07,1.17,12.87,12.87,0,0,0-1.38,1.53c-.43.56-1.88,2.75-4.35,6.55l1.15,2.55C819.43,81.13,820.31,83.5,820.31,84.36Z"/><path class="cls-8" d="M839.25,74.17a9,9,0,0,1-5.42,1.94,17.18,17.18,0,0,1-4.58-.5,10.56,10.56,0,0,0-.35,2.71,3.8,3.8,0,0,0,.35,1.92c.24.38.84.58,1.79.58a16.33,16.33,0,0,0,5.11-.71c1.42-.46,2.16-.69,2.21-.69,1.09,0,1.63.44,1.63,1.35q0,2-2.57,3.7a10.29,10.29,0,0,1-5.92,1.75,6.47,6.47,0,0,1-5.39-2.65,10.05,10.05,0,0,1-2-6.28,19.31,19.31,0,0,1,1.69-7.57A22,22,0,0,1,830,63.09c1.7-1.78,3.38-2.67,5.07-2.67s3.24,1,4.67,3.12a11,11,0,0,1,2.15,6.23C841.9,71.4,841,72.86,839.25,74.17Zm-2.8-6.65a2.24,2.24,0,0,0-1.57-1q-.74,0-1.89,1.32a15.88,15.88,0,0,0-2.19,3.43,9.28,9.28,0,0,0,1,0c3.63,0,5.45-.79,5.45-2.39A2.67,2.67,0,0,0,836.45,67.52Z"/><path class="cls-8" d="M843.49,78.36a20.1,20.1,0,0,1,1.75-7.69,23.12,23.12,0,0,1,4.59-7.2c1.89-2,3.76-3,5.59-3,.92,0,1.88.75,2.86,2.27a7.74,7.74,0,0,1,1.47,4.08q0,1.29-1,1.29a2.76,2.76,0,0,1-1.31-.54,3,3,0,0,0-1.71-.55c-.58,0-1.41.62-2.48,1.87a20.21,20.21,0,0,0-2.87,4.5,10.57,10.57,0,0,0-1.25,4.13,2.89,2.89,0,0,0,.46,2,3.53,3.53,0,0,0,2.23.45,12.39,12.39,0,0,0,3.22-.4,9.06,9.06,0,0,0,2.14-.83,2.53,2.53,0,0,1,1.26-.42q1.11,0,1.11,1.2,0,2.19-3.06,4.47a10.21,10.21,0,0,1-6.12,2.28q-1.95,0-4.44-2.73C844.32,81.67,843.49,80,843.49,78.36Z"/><path class="cls-8" d="M876.89,61.67c.21-.84.63-1.25,1.27-1.25s1.37.68,2.2,2A7.07,7.07,0,0,1,881.62,66q0,.54-1.83,7.34T877,84.11c-.37,1.41-1,2.11-1.86,2.11a1.64,1.64,0,0,1-1.34-.73,3.9,3.9,0,0,1-.53-2.27,29.45,29.45,0,0,1,.47-4.4q-4.1,7.4-6.52,7.4c-.85,0-1.86-.7-3.06-2.08a6.27,6.27,0,0,1-1.79-4,45.72,45.72,0,0,1,2.17-12.25q2.16-7.44,4.08-7.44a2.5,2.5,0,0,1,2,1.3,4.87,4.87,0,0,1,.9,2.85,15.75,15.75,0,0,1-1,3.35q-3,8.25-3,11.65c0,.2.07.29.2.29q.6,0,2.25-2.37a46.26,46.26,0,0,0,3.69-6.8A53.53,53.53,0,0,0,876.89,61.67Z"/><path class="cls-8" d="M891.62,70.14c-.41,1.62-.92,3.64-1.51,6.08s-.9,3.72-.9,3.87.22.23.66.23A11.46,11.46,0,0,0,893,79.19a13.1,13.1,0,0,1,2.9-1.12c.66,0,1,.56,1,1.7s-.88,2.49-2.66,4.07a8.33,8.33,0,0,1-5.57,2.38c-.84,0-1.85-.59-3-1.75a5.13,5.13,0,0,1-1.75-3.55,34.28,34.28,0,0,1,1.22-6.33c.8-3.22,1.35-5.42,1.65-6.62a8.07,8.07,0,0,1-2.35.55c-.53,0-1.09-.46-1.67-1.38a4.94,4.94,0,0,1-.87-2.62q0-1.6,6.16-2.7a51.62,51.62,0,0,0,.75-8q0-1.5,1.2-1.5a4.39,4.39,0,0,1,2.64,1.57,4.47,4.47,0,0,1,1.61,3.1,24.43,24.43,0,0,1-.52,4.28c1.28-.07,2.24-.11,2.91-.11,2,0,3,.57,3,1.71,0,.73-.58,1.35-1.73,1.87a33,33,0,0,1-5.31,1.67C892.34,67.27,892,68.52,891.62,70.14Z"/><path class="cls-8" d="M904.68,60.42c.92,0,1.75.66,2.48,2a8,8,0,0,1,1.1,3.85,56.08,56.08,0,0,1-1.38,6.82q-1.36,5.88-2.72,11.13-.48,1.95-1.95,2a1.93,1.93,0,0,1-1.53-.83,3.34,3.34,0,0,1-.65-2.15,49.47,49.47,0,0,1,1-6.6q1-5.28,1.55-9t1-5.45C903.89,61,904.25,60.42,904.68,60.42Zm-.6-6.25a4.74,4.74,0,0,1,.94-2.68c.62-.92,1.23-1.38,1.82-1.38s1.31.91,2.13,2.71a11,11,0,0,1,1.23,3.92,2.56,2.56,0,0,1-.63,1.87,1.85,1.85,0,0,1-1.31.66c-.77,0-1.66-.64-2.67-1.91A5.59,5.59,0,0,1,904.08,54.17Z"/><path class="cls-8" d="M913.4,66c2.06-3.74,4.09-5.61,6.11-5.61A6.25,6.25,0,0,1,924.6,63a10.26,10.26,0,0,1,2.06,6.45,22.06,22.06,0,0,1-1.43,7.68,17.46,17.46,0,0,1-4,6.47,7.78,7.78,0,0,1-5.53,2.58q-2.19,0-3.78-2.45a10.72,10.72,0,0,1-1.59-6A24.25,24.25,0,0,1,913.4,66Zm6.47,10.3a17.42,17.42,0,0,0,1.59-6.85,9.32,9.32,0,0,0-.72-4.4q-1.71,1.24-3.4,5.25a18.34,18.34,0,0,0-1.69,7,9.16,9.16,0,0,0,.48,3.82C917.56,80.32,918.8,78.7,919.87,76.27Z"/><path class="cls-8" d="M943.28,60.42a4.43,4.43,0,0,1,3.64,2.32,8.71,8.71,0,0,1,1.57,5,38.46,38.46,0,0,1-1.09,8.87A32.55,32.55,0,0,1,945,83.72c-.86,1.66-1.73,2.5-2.62,2.5s-1.33-.79-1.33-2.36a40.18,40.18,0,0,1,1.31-7.25,34.49,34.49,0,0,0,1-6.44c0-1.31-.13-2-.39-2a1.34,1.34,0,0,0-1,.64c-.33.44-.6.82-.81,1.16s-.46.75-.74,1.27-.52,1-.71,1.4-.46,1-.76,1.6-.55,1.18-.74,1.6l-.71,1.63q-3.71,8.7-5.81,8.7-.82,0-2.1-1.83a5.81,5.81,0,0,1-1.28-2.67,11,11,0,0,1,.58-2.38c.38-1.22.66-2.15.84-2.8s.31-1.34.43-2.07.22-1.53.3-2.38.14-1.51.18-2,.09-1.19.14-2.19a53.53,53.53,0,0,1,.62-7.2c.17-.47.36-.7.57-.7a3.9,3.9,0,0,1,2.9,1.57,4.58,4.58,0,0,1,1.4,2.88A44.94,44.94,0,0,1,935,73.36q2.6-5.69,4.72-9.32C941.1,61.62,942.3,60.42,943.28,60.42Z"/></g><polygon class="cls-10" points="241.5 271.5 194.6 271.5 196 218.6 241.5 218.6 241.5 271.5"/><path class="cls-11" d="M249.8,271.5H198c-2.2-3.2-2.2-55.1-2.2-55.1h51.8C247.7,216.5,247.6,268.8,249.8,271.5Z"/><rect class="cls-12" x="195.8" y="216.5" width="51.8" height="6.4"/><polygon class="cls-10" points="174.9 310.9 127.9 310.9 129.4 258 174.9 258 174.9 310.9"/><path class="cls-13" d="M183.2,310.9H131.4c-2.2-3.2-2.2-55.1-2.2-55.1H181S181,308.2,183.2,310.9Z"/><rect class="cls-14" x="129.2" y="255.8" width="51.8" height="6.4"/><polygon class="cls-10" points="878.2 182.6 831.2 182.6 832.7 129.7 878.2 129.7 878.2 182.6"/><path class="cls-13" d="M886.5,182.6H834.7c-2.2-3.2-2.2-55.1-2.2-55.1h51.8C884.3,127.6,884.3,179.9,886.5,182.6Z"/><rect class="cls-14" x="832.5" y="127.6" width="51.8" height="6.4"/><polygon class="cls-10" points="585.3 179.9 538.3 179.9 539.8 127 585.3 127 585.3 179.9"/><path class="cls-13" d="M593.6,179.9H541.8c-2.2-3.2-2.2-55.1-2.2-55.1h51.8S591.4,177.2,593.6,179.9Z"/><rect class="cls-14" x="539.6" y="124.8" width="51.8" height="6.4"/><polygon class="cls-10" points="524.7 195.7 477.8 195.7 479.2 142.8 524.7 142.8 524.7 195.7"/><path class="cls-13" d="M533,195.7H481.2c-2.2-3.2-2.2-55.1-2.2-55.1h51.8C530.9,140.6,530.8,193,533,195.7Z"/><rect class="cls-14" x="479" y="140.6" width="51.8" height="6.4"/><polygon class="cls-10" points="909.4 217.6 862.4 217.6 863.9 164.8 909.4 164.8 909.4 217.6"/><path class="cls-11" d="M917.7,217.7H865.9c-2.2-3.2-2.2-55.1-2.2-55.1h51.8S915.5,215,917.7,217.7Z"/><rect class="cls-12" x="863.7" y="162.6" width="51.8" height="6.4"/><rect class="cls-15" x="832.5" y="353.8" width="17.9" height="15.4"/><rect class="cls-15" x="858.3" y="344" width="17.9" height="25.1"/><rect class="cls-15" x="884.1" y="328" width="17.9" height="41.1"/><rect class="cls-15" x="909.6" y="316.1" width="17.9" height="53"/><polygon class="cls-16" points="918.6 279.5 903.1 300.1 909.6 300.1 909.6 312.8 927.5 312.8 927.5 300.1 934 300.1 918.6 279.5"/><path class="cls-17" d="M145.3,150.4a22.53,22.53,0,0,0-27.2-2.9,17.51,17.51,0,0,0-5.5-12.3,17.84,17.84,0,0,0-25.2.6,20.18,20.18,0,0,0-3,4.2,36.22,36.22,0,0,0-3.6-4.2,29.44,29.44,0,0,0-48.6,29.3A26.92,26.92,0,0,0,21,172a26,26,0,0,0,27.2,42.6,18,18,0,0,0,30.7,16.2,18.29,18.29,0,0,0,4.6-8.8,32.31,32.31,0,0,0,46.8-32.9,22,22,0,0,0,15.7-7A22.25,22.25,0,0,0,145.3,150.4Z"/><path class="cls-2" d="M243.1,160.4a4.27,4.27,0,0,0-2.5.1l-2.5.8,3.8-11h0l.8-2.3-12.8-4.5,1.6-1.4a3.86,3.86,0,0,0,1.1-1.7c1-2.7-1.1-5.9-4.5-7.1a8.34,8.34,0,0,0-4.4-.3,4.39,4.39,0,0,0-3.8,5l.3,2.1-10.6-3.7L204.8,150l-1.4-2.2a4.26,4.26,0,0,0-2.5-1.9,3.75,3.75,0,0,0-2.1,0c-2.1.5-3.9,2.5-4.7,5-1,3.5.4,7,3.2,7.8a4.48,4.48,0,0,0,2.3,0l2.4-.7-4.5,12.8.2.1-.1.2,11.8,3.9-1.9,1.5a3.8,3.8,0,0,0-1.3,1.8c-1,2.7.9,5.9,4.3,7.2a7.82,7.82,0,0,0,4.5.4,4.65,4.65,0,0,0,3.5-2.8,3.85,3.85,0,0,0,.1-2.6l-.6-2.3,12.3,4.3,4.8-13.7,1.4,2.4a4.15,4.15,0,0,0,2.6,2.1,3.75,3.75,0,0,0,2.1,0c2.1-.5,3.9-2.5,4.7-5C247.3,164.7,245.9,161.2,243.1,160.4Z"/><path class="cls-3" d="M234,145l-4-1.4,1.6-1.4a3.86,3.86,0,0,0,1.1-1.7c1-2.7-1.1-5.9-4.5-7.1a8.34,8.34,0,0,0-4.4-.3,4.39,4.39,0,0,0-3.8,5l.3,2.1-10.6-3.7-4.8,13.6-1.4-2.2A4.26,4.26,0,0,0,201,146a3.75,3.75,0,0,0-2.1,0c-2.1.5-3.9,2.5-4.7,5-1,3.5.4,7,3.2,7.8a4.48,4.48,0,0,0,2.3,0l2.4-.7-4.5,12.8.2.1-.1.2,2.1.7C214.5,166,226.4,156.6,234,145Z"/><path class="cls-16" d="M213.7,319.8c-.1,1.1-.1,2.2-.1,3.3a18.47,18.47,0,0,0-6,2c-.7-.9-1.4-1.7-2.1-2.6a22.65,22.65,0,0,0-4,2.9c-.1.1-.2.2-.3.2.1.1.1.2.2.3.5.8,1.1,1.7,1.7,2.5-.6.6-1.1,1.2-1.7,1.9a16.65,16.65,0,0,0-1.8,2.8c-.1.2-.2.3-.2.5l-3.2-.9a29.11,29.11,0,0,0-1.6,5c1,.4,2.1.8,3.1,1.1a19,19,0,0,0,.1,6.3c-1,.4-2.1.8-3.1,1.2a22.7,22.7,0,0,0,1.7,5l3.2-.9a18.86,18.86,0,0,0,3.8,5.1c-.6.9-1.2,1.8-1.8,2.8a20.79,20.79,0,0,0,4.3,3c.7-.9,1.4-1.7,2-2.6a19.62,19.62,0,0,0,6.1,1.9c0,1.1.1,2.2.2,3.3a18.9,18.9,0,0,0,5.3-.1c.1-1.1.1-2.2.1-3.3a18.47,18.47,0,0,0,6-2c.7.9,1.4,1.7,2.1,2.6a25.29,25.29,0,0,0,4.2-3.1,3.51,3.51,0,0,1-.5-.8c-.4-.7-.9-1.3-1.3-1.9a18.28,18.28,0,0,0,3.4-4.7c.1-.2.2-.3.2-.5l3.2.9a29.11,29.11,0,0,0,1.6-5c-1-.4-2.1-.8-3.1-1.1a19,19,0,0,0-.1-6.3c1-.4,2.1-.8,3.1-1.2a22.7,22.7,0,0,0-1.7-5l-3.2.9a18.86,18.86,0,0,0-3.8-5.1c.6-.9,1.2-1.8,1.8-2.8a20.79,20.79,0,0,0-4.3-3c-.7.9-1.4,1.7-2,2.6a19.62,19.62,0,0,0-6.1-1.9c0-1.1-.1-2.2-.2-3.3A22.6,22.6,0,0,0,213.7,319.8Z"/><path class="cls-16" d="M185.3,350.7c-.3,0-.6-.1-.9-.1a15.4,15.4,0,0,0-5.7.5,15.05,15.05,0,0,0-1.1-2.2,21.69,21.69,0,0,0-3.5,1.5c.3.8.6,1.6.9,2.3a15.84,15.84,0,0,0-4.8,4.5,22.88,22.88,0,0,0-2.3-1,15.44,15.44,0,0,0-1.7,3.4c.7.4,1.5.8,2.2,1.2a13.59,13.59,0,0,0-.7,3.5,16.05,16.05,0,0,0,0,3.1,21.72,21.72,0,0,0-2.4.7,22.21,22.21,0,0,0,.9,3.7c.8-.1,1.6-.3,2.5-.5a16.92,16.92,0,0,0,3.6,5.5c-.5.7-.9,1.4-1.4,2.1a17.8,17.8,0,0,0,3.1,2.3l1.6-1.9a15,15,0,0,0,5.9,1.8h.4c.1.8.2,1.7.3,2.5a15.89,15.89,0,0,0,3.8-.2v-2.5a14.66,14.66,0,0,0,6-2.6c.6.6,1.2,1.2,1.8,1.7a34.46,34.46,0,0,0,2.8-2.6l-1.6-1.9a14.2,14.2,0,0,0,2.9-5.9c.8.1,1.7.1,2.5.2a15.81,15.81,0,0,0,.4-3.8,18.66,18.66,0,0,0-2.5-.4,15.42,15.42,0,0,0-1.5-6.4c.7-.5,1.4-1,2-1.5a22,22,0,0,0-2.1-3.2c-.7.4-1.4.8-2.2,1.3a14.93,14.93,0,0,0-5.3-3.9l.6-2.4a15.77,15.77,0,0,0-3.7-1.1A15.55,15.55,0,0,0,185.3,350.7Z"/><circle class="cls-17" cx="183.4" cy="366.3" r="3.7"/><circle class="cls-17" cx="216.8" cy="342.1" r="6.7"/><path class="cls-15" d="M126.5,157.2a26.85,26.85,0,0,0,29.7,44.7l2.2,3.1a3.21,3.21,0,0,0-.5,4.2l13.7,19.2a3.09,3.09,0,0,0,4.4.7l2.3-1.6a3.2,3.2,0,0,0,.8-4.4l-13.7-19.2a3.13,3.13,0,0,0-4.1-.9l-2.2-3.1a26.88,26.88,0,0,0-32.6-42.7Zm32.2,10.1a20.44,20.44,0,1,1-28.5-4.8A20.48,20.48,0,0,1,158.7,167.3Z"/><path class="cls-18" d="M801.6,203.1H766.7l-.2-1a5.52,5.52,0,0,0-5.3-3.9H737.1c-2.4,0-3.9,1.8-3.4,3.9l1.1,4.9,8.5,36.7a5.52,5.52,0,0,0,5.3,3.9h63.3a3.28,3.28,0,0,0,3.5-3.9L806.9,207A5.65,5.65,0,0,0,801.6,203.1Z"/><rect class="cls-2" x="742.81" y="188.99" width="70" height="48.6" transform="translate(-19.65 92.71) rotate(-6.74)"/><rect class="cls-19" x="746.71" y="181.6" width="70" height="48.6" transform="translate(-16.66 79.14) rotate(-5.73)"/><path class="cls-11" d="M822.1,198.2H787.2l.2-1.1a3.44,3.44,0,0,0-3.4-4.4H759.9a5.63,5.63,0,0,0-5.3,4.4l-1.1,5.5L745,243.3a3.44,3.44,0,0,0,3.4,4.4h63.3a5.63,5.63,0,0,0,5.3-4.4l8.5-40.7A3.4,3.4,0,0,0,822.1,198.2Z"/><path class="cls-14" d="M1015.7,214.4a3.9,3.9,0,0,0-3.9-3.9h-57a3.9,3.9,0,0,0-3.9,3.9v11.5a3.9,3.9,0,0,0,3.9,3.9h57a3.9,3.9,0,0,0,3.9-3.9Z"/><rect class="cls-19" x="954.7" y="229.8" width="57" height="42.6"/><rect class="cls-20" x="954.7" y="229.8" width="57" height="4.7"/><path class="cls-21" d="M971.6,205.1a2.58,2.58,0,0,0-2.6-2.6h0a2.58,2.58,0,0,0-2.6,2.6v11.4a2.58,2.58,0,0,0,2.6,2.6h0a2.58,2.58,0,0,0,2.6-2.6Z"/><path class="cls-21" d="M994.9,205.1a2.58,2.58,0,0,1,2.6-2.6h0a2.58,2.58,0,0,1,2.6,2.6v11.4a2.58,2.58,0,0,1-2.6,2.6h0a2.58,2.58,0,0,1-2.6-2.6Z"/><path class="cls-21" d="M983.9,256.3a7.62,7.62,0,0,1-2.1,5.6,8,8,0,0,1-5.9,2.1,7.68,7.68,0,0,1-5.5-1.9,7.3,7.3,0,0,1-2.1-5.2h3a4.28,4.28,0,0,0,1.3,3.2,4.41,4.41,0,0,0,3.3,1.1,4.53,4.53,0,0,0,5-5,4.69,4.69,0,0,0-1.3-3.6,5.17,5.17,0,0,0-3.8-1.3H975v-2.7h.8a5,5,0,0,0,3.4-1.1,4.31,4.31,0,0,0,1.2-3.3,3.79,3.79,0,0,0-4.1-4,4.37,4.37,0,0,0-2.9.9,3.94,3.94,0,0,0-1.4,2.6h-3a6.52,6.52,0,0,1,2.2-4.6,7.6,7.6,0,0,1,5.1-1.6,7.31,7.31,0,0,1,5.2,1.8,6.26,6.26,0,0,1,1.9,4.9,6.8,6.8,0,0,1-1.1,3.8,5,5,0,0,1-3,2,5.53,5.53,0,0,1,3.4,2.1A8,8,0,0,1,983.9,256.3Z"/><path class="cls-21" d="M996.7,263.4h-3V240.9h-4.8l1.4-2.9h6.5v25.4Z"/><g class="cls-9"><path class="cls-8" d="M67.13,178.81a4.76,4.76,0,0,1-1.65,3.66,9.79,9.79,0,0,1-4.35,2.16c-.77,3.29-1.24,4.94-1.38,4.94s-.33-.15-.53-.45a1.61,1.61,0,0,1-.3-.9,15.16,15.16,0,0,1,.46-2.39,49.78,49.78,0,0,0,1.5-8.34,1.27,1.27,0,0,1-.39-.8c0-.33.36-.65,1.09-1a5.21,5.21,0,0,1,2.06-.46,3.41,3.41,0,0,1,2.51,1A3.48,3.48,0,0,1,67.13,178.81Zm-1.4.12a2,2,0,0,0-.54-1.45,1.68,1.68,0,0,0-1.28-.57,3.86,3.86,0,0,0-1.81.6,2.33,2.33,0,0,1,.16.82,29.35,29.35,0,0,1-.78,4.74,8.14,8.14,0,0,0,3.08-1.77A3.29,3.29,0,0,0,65.73,178.93Z"/><path class="cls-8" d="M70.5,175.73a50.94,50.94,0,0,1-1.24,9.76c-.53,2.72-.9,4.08-1.12,4.08s-.32-.15-.51-.44a1.38,1.38,0,0,1-.3-.68c0-.16.16-1,.46-2.48s.62-3.33.93-5.51a43.71,43.71,0,0,0,.46-5.89,1,1,0,0,1,.06-.4q.06-.12.27-.12t.6.57A2,2,0,0,1,70.5,175.73Z"/><path class="cls-8" d="M76.81,180.56a3.09,3.09,0,0,1,.61,1.64,3.27,3.27,0,0,1-.4,1.49,1,1,0,0,1,.19.52,16.17,16.17,0,0,1-.2,1.92c-.13.91-.21,1.5-.24,1.78s0,.5-.07.67,0,.33-.08.49c0,.33-.14.5-.29.5s-.34-.21-.47-.63a6.81,6.81,0,0,1-.21-1.63c-.94,1.51-1.82,2.26-2.62,2.26a2,2,0,0,1-1.44-.79,2.41,2.41,0,0,1-.71-1.63,8.34,8.34,0,0,1,.7-3A11.88,11.88,0,0,1,73.39,181a3,3,0,0,1,2.1-1.38A1.64,1.64,0,0,1,76.81,180.56Zm-.59,2.61c0-1.24-.19-1.86-.59-1.86s-.89.37-1.44,1.11a11.46,11.46,0,0,0-1.4,2.51,6.37,6.37,0,0,0-.58,2.22.72.72,0,0,0,.23.55.73.73,0,0,0,.52.21c.5,0,1.06-.42,1.69-1.27a7.73,7.73,0,0,0,1.3-3.09.39.39,0,0,1,.27-.36Z"/><path class="cls-8" d="M82.77,181.24c.64-1.06,1.16-1.59,1.57-1.59a1.47,1.47,0,0,1,1.16.82,3.06,3.06,0,0,1,.55,1.74,14.8,14.8,0,0,1-.52,3.52c-.64,2.56-1.21,3.84-1.72,3.84-.23,0-.35-.2-.35-.6a8.4,8.4,0,0,1,.34-1.71c.23-.86.44-1.71.64-2.54a9.37,9.37,0,0,0,.29-1.88,2.18,2.18,0,0,0-.15-.93q-.15-.3-.3-.3a.51.51,0,0,0-.31.12,1.63,1.63,0,0,0-.36.4c-.13.19-.26.37-.37.55a8.32,8.32,0,0,0-.44.77c-.18.33-.32.62-.44.85s-.28.57-.51,1l-.51,1-.46.92q-.28.59-.45.9l-.37.7c-.27.49-.48.74-.63.74s-.33-.15-.54-.45a1.48,1.48,0,0,1-.3-.79,3.71,3.71,0,0,1,.11-.54c.2-.77.43-1.73.67-2.87a19.56,19.56,0,0,0,.4-3.89c0-1,.14-1.46.33-1.46a.92.92,0,0,1,.7.46,1.59,1.59,0,0,1,.35,1,14.93,14.93,0,0,1-.26,2.12c-.17,1.05-.38,2-.61,2.93Q81.81,182.83,82.77,181.24Z"/></g><g class="cls-9"><path class="cls-8" d="M619.15,149.73c.27,0,.56.22.85.66a2.19,2.19,0,0,1,.44,1.09c0,.29,0,.43-.12.43a1.39,1.39,0,0,1-.45-.15,1.55,1.55,0,0,0-.61-.15,2.51,2.51,0,0,0-1.5.8,10.76,10.76,0,0,0-1.67,2,13.26,13.26,0,0,0-1.35,2.69,7.78,7.78,0,0,0-.55,2.61,2.38,2.38,0,0,0,.45,1.61,1.51,1.51,0,0,0,1.19.51,4.64,4.64,0,0,0,1.51-.27,5.19,5.19,0,0,0,1.27-.61,8.35,8.35,0,0,1,1.4-.86q.27,0,.27.45a2,2,0,0,1-.73,1.2,7.69,7.69,0,0,1-1.82,1.35,4.06,4.06,0,0,1-1.94.6,2.75,2.75,0,0,1-2.1-1.21,4.14,4.14,0,0,1-1-2.67,11.18,11.18,0,0,1,1-4.25,14.3,14.3,0,0,1,2.51-4.09A4.22,4.22,0,0,1,619.15,149.73Z"/><path class="cls-8" d="M622.32,157.45a7.75,7.75,0,0,1,1.45-2.57,2.53,2.53,0,0,1,1.84-1,1.86,1.86,0,0,1,1.59,1,4.59,4.59,0,0,1,.63,2.46,8.49,8.49,0,0,1-.55,3,6.88,6.88,0,0,1-1.54,2.5,2.89,2.89,0,0,1-2.07,1,1.57,1.57,0,0,1-1.36-.94,4.72,4.72,0,0,1-.54-2.39A9.24,9.24,0,0,1,622.32,157.45Zm4.18-.18a4.57,4.57,0,0,0-.18-1.29,1.71,1.71,0,0,0-.51-.89,3.65,3.65,0,0,0-1.88,2.13,8,8,0,0,0-.79,3.29c0,1,.2,1.67.61,1.92a3.17,3.17,0,0,0,1.94-2A7.38,7.38,0,0,0,626.5,157.27Z"/><path class="cls-8" d="M639.19,153.87c.32,0,.6.28.85.83a4.54,4.54,0,0,1,.37,1.88,17.16,17.16,0,0,1-.29,2.73,19.47,19.47,0,0,1-.79,3.08c-.33.94-.65,1.4-1,1.4s-.33-.18-.33-.55a15.62,15.62,0,0,1,.55-2.7,14.84,14.84,0,0,0,.54-3.42c0-.84-.1-1.27-.31-1.27s-.57.3-.92.88-.71,1.3-1.1,2.12l-.64,1.33-.12.25-.16.34c-.06.12-.2.48-.44,1.08a15.26,15.26,0,0,1-.63,1.41c-.18.34-.34.51-.47.51s-.28-.1-.44-.32a1,1,0,0,1-.24-.6,5.2,5.2,0,0,1,.29-1.16,16,16,0,0,0,.83-4.84,1.55,1.55,0,0,0-.15-.71c-.09-.19-.2-.29-.31-.29a.58.58,0,0,0-.37.19,3.71,3.71,0,0,0-.48.68q-.29.5-.51.93c-.14.3-.37.75-.67,1.37s-.53,1.08-.69,1.38l-.53,1c-.2.4-.36.7-.47.91s-.23.45-.37.7c-.29.5-.5.74-.63.74s-.3-.15-.52-.45a1.4,1.4,0,0,1-.32-.68,3.63,3.63,0,0,1,.07-.57c0-.22.09-.44.13-.66l.23-1c.1-.42.21-.91.35-1.48a15.79,15.79,0,0,0,.3-2.34c.07-1,.12-1.72.15-2.18s.12-.69.27-.69a1,1,0,0,1,.69.46,1.54,1.54,0,0,1,.34.92,26.51,26.51,0,0,1-1,5.8q1.78-4.2,2.25-5c.3-.52.57-.94.79-1.26a1.68,1.68,0,0,1,1.26-.86c.25,0,.56.28.91.83a3.06,3.06,0,0,1,.54,1.67,15,15,0,0,1-.19,2.08Q637.67,153.88,639.19,153.87Z"/><path class="cls-8" d="M646.76,153.81c.45,0,.85.37,1.18,1.1a5.36,5.36,0,0,1,.51,2.27,5.56,5.56,0,0,1-.55,2.34,8.76,8.76,0,0,1-1.33,2.09,7.65,7.65,0,0,1-1.76,1.53,3.33,3.33,0,0,1-1.77.61,1.77,1.77,0,0,1-.61-.1c0,.23-.11.64-.22,1.22l-.27,1.46c-.07.39-.16.8-.25,1.24-.19.91-.36,1.36-.51,1.36s-.31-.14-.47-.43a1.51,1.51,0,0,1-.25-.77c0-.22.17-1.2.51-2.92a67.49,67.49,0,0,0,1.53-10.48c0-.4.11-.6.35-.6s.42.18.69.53a1.9,1.9,0,0,1,.4,1.17,4.41,4.41,0,0,1-.06.7C644.82,154.59,645.78,153.81,646.76,153.81Zm-3.88,8.38a3.14,3.14,0,0,0,1.82-.72,6.13,6.13,0,0,0,1.67-1.91,4.67,4.67,0,0,0,.69-2.37c0-1.1-.21-1.66-.62-1.66s-1,.45-1.68,1.34a10.45,10.45,0,0,0-1.68,3.48l-.36,1.84Z"/><path class="cls-8" d="M652.29,150a50.15,50.15,0,0,1-1.24,9.76q-.79,4.08-1.11,4.08c-.15,0-.32-.14-.52-.44a1.44,1.44,0,0,1-.29-.68c0-.16.15-1,.46-2.48s.61-3.33.92-5.51a42.13,42.13,0,0,0,.46-5.89.82.82,0,0,1,.07-.4q.06-.12.27-.12c.13,0,.33.19.59.57A2,2,0,0,1,652.29,150Z"/><path class="cls-8" d="M655,153.87c.2,0,.4.16.57.46a1.71,1.71,0,0,1,.28.9,20.9,20.9,0,0,1-.47,2.63q-.45,2.19-1.16,4.91c-.18.67-.4,1-.68,1a.43.43,0,0,1-.38-.23A.85.85,0,0,1,653,163a5.58,5.58,0,0,1,.12-.92c.08-.42.19-1,.35-1.68s.27-1.27.36-1.71.19-.93.28-1.49.17-1,.23-1.34.13-.68.2-1C654.7,154.2,654.85,153.87,655,153.87Zm.08-2.84a1.32,1.32,0,0,1,.26-.76q.25-.36.51-.36t.63.81a3.36,3.36,0,0,1,.37,1.35.49.49,0,0,1-.15.36.38.38,0,0,1-.3.16c-.25,0-.54-.19-.85-.58A1.7,1.7,0,0,1,655.09,151Z"/><path class="cls-8" d="M662.39,154.78a3.12,3.12,0,0,1,.61,1.64,3.23,3.23,0,0,1-.4,1.49,1,1,0,0,1,.19.52,15.78,15.78,0,0,1-.2,1.92c-.13.91-.21,1.5-.24,1.78s-.05.5-.07.67,0,.33-.08.49c0,.34-.14.5-.28.5s-.35-.21-.47-.63a6.29,6.29,0,0,1-.22-1.63c-.94,1.51-1.82,2.26-2.62,2.26a2,2,0,0,1-1.44-.79,2.43,2.43,0,0,1-.71-1.63,8.34,8.34,0,0,1,.7-3,12.16,12.16,0,0,1,1.81-3.15,3,3,0,0,1,2.1-1.38A1.67,1.67,0,0,1,662.39,154.78Zm-.59,2.61c0-1.24-.19-1.86-.59-1.86s-.89.37-1.44,1.11a11.46,11.46,0,0,0-1.4,2.51,6.41,6.41,0,0,0-.57,2.22.71.71,0,0,0,.22.55.73.73,0,0,0,.52.21c.5,0,1.06-.42,1.69-1.27a7.61,7.61,0,0,0,1.3-3.09.41.41,0,0,1,.27-.36Z"/><path class="cls-8" d="M668.35,155.46c.64-1.06,1.16-1.59,1.57-1.59a1.49,1.49,0,0,1,1.16.82,3.06,3.06,0,0,1,.55,1.74,14.73,14.73,0,0,1-.52,3.52c-.64,2.56-1.21,3.84-1.72,3.84-.23,0-.35-.2-.35-.6a8.4,8.4,0,0,1,.34-1.71c.23-.86.44-1.7.64-2.54a9.37,9.37,0,0,0,.29-1.88,2.18,2.18,0,0,0-.15-.93q-.15-.3-.3-.3a.53.53,0,0,0-.31.12,1.84,1.84,0,0,0-.36.4c-.13.19-.26.37-.37.55a8.32,8.32,0,0,0-.44.77c-.17.34-.32.62-.44.85s-.28.57-.51,1-.39.78-.51,1l-.46.92-.45.9c-.11.22-.24.45-.37.7-.27.5-.48.74-.63.74s-.33-.15-.53-.45a1.42,1.42,0,0,1-.31-.79,3.47,3.47,0,0,1,.12-.54c.2-.77.42-1.73.66-2.87a19.48,19.48,0,0,0,.4-3.89c0-1,.14-1.46.33-1.46a.94.94,0,0,1,.7.46,1.61,1.61,0,0,1,.35,1,14.77,14.77,0,0,1-.26,2.12c-.17,1.05-.38,2-.61,2.93Q667.39,157.05,668.35,155.46Z"/><path class="cls-8" d="M675.35,163.79a2.34,2.34,0,0,1-1.75-.91,3.12,3.12,0,0,1-.81-2.16,8,8,0,0,1,.67-2.89,9.46,9.46,0,0,1,1.73-2.8,2.92,2.92,0,0,1,2.06-1.16,1.4,1.4,0,0,1,1.14.74,2.46,2.46,0,0,1,.49,1.3.4.4,0,0,1-.08.27.25.25,0,0,1-.23.11c-.1,0-.27-.12-.53-.36a1.06,1.06,0,0,0-.68-.36c-.57,0-1.24.64-2,1.9a6.74,6.74,0,0,0-1.14,3.32,1.42,1.42,0,0,0,.31,1,1.26,1.26,0,0,0,1,.36,3.68,3.68,0,0,0,1.27-.21,4.27,4.27,0,0,0,.9-.42,1,1,0,0,1,.49-.21c.21,0,.31.13.31.38s-.37.84-1.11,1.35A3.59,3.59,0,0,1,675.35,163.79Z"/><path class="cls-8" d="M686.2,157.18a2,2,0,0,1-.91,1.74,3.39,3.39,0,0,1-2.07.67,6.24,6.24,0,0,1-2.09-.32,6.47,6.47,0,0,0-.23,1.57,1.53,1.53,0,0,0,.35,1.07,1.42,1.42,0,0,0,1.13.38,4.08,4.08,0,0,0,1.62-.35,7.41,7.41,0,0,1,.91-.35.37.37,0,0,1,.42.4c0,.36-.33.75-1,1.17a3.49,3.49,0,0,1-1.9.63,2.52,2.52,0,0,1-2-.93,3.53,3.53,0,0,1-.78-2.35,8.3,8.3,0,0,1,.61-3,8.38,8.38,0,0,1,1.56-2.61,2.65,2.65,0,0,1,1.89-1.06,2.17,2.17,0,0,1,1.71,1.12A3.91,3.91,0,0,1,686.2,157.18Zm-2.4-1.73a1.75,1.75,0,0,0-1.23.77,7.23,7.23,0,0,0-1.08,1.91,5.38,5.38,0,0,0,1.45.18,3,3,0,0,0,1.42-.33,1,1,0,0,0,.6-.87,1.92,1.92,0,0,0-.39-1.1C684.31,155.64,684.05,155.45,683.8,155.45Z"/></g><g class="cls-9"><path class="cls-8" d="M391.75,153.35l-2.72.16c-.17,0-.35-.14-.53-.42a1.51,1.51,0,0,1-.27-.82c0-.24.31-.39.92-.46s1.94-.1,4-.1a6.91,6.91,0,0,1,2.65.44c.69.3,1,.62,1,1s-.17.38-.52.38-.84,0-1.47-.08-1.22-.08-1.79-.1a2.06,2.06,0,0,1,0,.44q0,.75-1.24,6.88l-.38,2c-.17.91-.3,1.54-.38,1.9-.15.71-.28,1.06-.4,1.06s-.33-.15-.53-.45a1.6,1.6,0,0,1-.29-.91c0-.3.28-1.88.85-4.73A57,57,0,0,0,391.75,153.35Z"/><path class="cls-8" d="M397.19,158.21l-.05-1.5c0-.62.11-.94.35-.94s.39.17.58.49a2.4,2.4,0,0,1,.28,1.16,8.47,8.47,0,0,1,0,1c.93-1.76,1.8-2.64,2.63-2.64q.78,0,.78.48a.64.64,0,0,1-.18.44,2.53,2.53,0,0,1-.55.46,3.86,3.86,0,0,0-1.43,1.41,9.57,9.57,0,0,0-.94,2.15c-.25.8-.44,1.48-.58,2s-.26,1-.33,1.28-.16.61-.25.9c-.17.54-.37.8-.59.8s-.33-.13-.44-.39a1.94,1.94,0,0,1-.17-.76,8,8,0,0,1,.27-1.47A19.29,19.29,0,0,0,397.19,158.21Z"/><path class="cls-8" d="M407.05,156.68a2.73,2.73,0,0,1,.2,3.13,1,1,0,0,1,.19.52,14,14,0,0,1-.2,1.92c-.13.91-.21,1.5-.23,1.78s-.05.51-.08.67a3.85,3.85,0,0,1-.08.49c0,.34-.13.5-.28.5s-.35-.21-.47-.63a7.29,7.29,0,0,1-.22-1.63c-.94,1.51-1.81,2.26-2.62,2.26a2,2,0,0,1-1.44-.79,2.43,2.43,0,0,1-.71-1.63,8.56,8.56,0,0,1,.7-3,11.91,11.91,0,0,1,1.82-3.15,3,3,0,0,1,2.1-1.38A1.7,1.7,0,0,1,407.05,156.68Zm-.59,2.61c0-1.24-.2-1.86-.59-1.86s-.9.37-1.45,1.11a11.46,11.46,0,0,0-1.4,2.51,6.41,6.41,0,0,0-.57,2.22.71.71,0,0,0,.22.55.76.76,0,0,0,.53.21c.5,0,1.06-.42,1.68-1.27a7.62,7.62,0,0,0,1.31-3.09.39.39,0,0,1,.27-.36Z"/><path class="cls-8" d="M410.91,155.77c.2,0,.39.16.57.46a1.79,1.79,0,0,1,.27.9,20,20,0,0,1-.46,2.63c-.31,1.46-.69,3.1-1.16,4.91-.18.67-.41,1-.68,1a.43.43,0,0,1-.38-.23.85.85,0,0,1-.16-.52A5.58,5.58,0,0,1,409,164c.08-.42.19-1,.35-1.68s.27-1.27.36-1.71.18-.93.28-1.49.17-1,.23-1.34.13-.68.2-1C410.6,156.1,410.75,155.77,410.91,155.77Zm.08-2.84a1.3,1.3,0,0,1,.25-.76.7.7,0,0,1,.52-.36q.27,0,.63.81a3.49,3.49,0,0,1,.36,1.35.48.48,0,0,1-.14.36.38.38,0,0,1-.3.16c-.25,0-.54-.19-.85-.58A1.7,1.7,0,0,1,411,152.93Z"/><path class="cls-8" d="M416.79,157.36c.64-1.06,1.16-1.59,1.57-1.59a1.49,1.49,0,0,1,1.16.82,3.06,3.06,0,0,1,.55,1.74,14.73,14.73,0,0,1-.52,3.52c-.64,2.56-1.21,3.84-1.72,3.84-.24,0-.35-.2-.35-.6a8.4,8.4,0,0,1,.34-1.71c.23-.86.44-1.7.64-2.54a9.37,9.37,0,0,0,.29-1.88,2.18,2.18,0,0,0-.15-.93q-.15-.3-.3-.3a.51.51,0,0,0-.31.12,1.84,1.84,0,0,0-.36.4c-.13.19-.26.37-.37.55a8.32,8.32,0,0,0-.44.77l-.44.85-.51,1c-.22.44-.39.78-.51,1l-.46.92q-.28.59-.45.9c-.11.22-.24.45-.37.7-.27.5-.48.74-.63.74s-.33-.15-.54-.45a1.48,1.48,0,0,1-.3-.79,4.34,4.34,0,0,1,.11-.54c.2-.77.43-1.73.67-2.87a20.24,20.24,0,0,0,.4-3.89c0-1,.14-1.46.33-1.46a.94.94,0,0,1,.7.46,1.61,1.61,0,0,1,.35,1,16.45,16.45,0,0,1-.26,2.12c-.17,1.05-.38,2-.61,2.93Q415.83,159,416.79,157.36Z"/><path class="cls-8" d="M423.17,155.77c.2,0,.39.16.57.46a1.79,1.79,0,0,1,.27.9,20,20,0,0,1-.46,2.63q-.45,2.19-1.16,4.91c-.18.67-.41,1-.68,1a.43.43,0,0,1-.38-.23.85.85,0,0,1-.16-.52,5.58,5.58,0,0,1,.12-.92c.08-.42.19-1,.35-1.68s.27-1.27.36-1.71.19-.93.28-1.49.17-1,.23-1.34.13-.68.2-1C422.86,156.1,423,155.77,423.17,155.77Zm.08-2.84a1.32,1.32,0,0,1,.26-.76q.25-.36.51-.36t.63.81A3.53,3.53,0,0,1,425,154a.49.49,0,0,1-.15.36.38.38,0,0,1-.3.16c-.25,0-.54-.19-.85-.58A1.7,1.7,0,0,1,423.25,152.93Z"/><path class="cls-8" d="M429.05,157.36c.64-1.06,1.16-1.59,1.57-1.59a1.49,1.49,0,0,1,1.16.82,3.06,3.06,0,0,1,.55,1.74,14.73,14.73,0,0,1-.52,3.52c-.64,2.56-1.21,3.84-1.72,3.84-.23,0-.35-.2-.35-.6a8.4,8.4,0,0,1,.34-1.71c.23-.86.44-1.7.64-2.54A9.37,9.37,0,0,0,431,159a2.18,2.18,0,0,0-.15-.93q-.15-.3-.3-.3a.53.53,0,0,0-.31.12,1.84,1.84,0,0,0-.36.4c-.13.19-.26.37-.37.55a8.32,8.32,0,0,0-.44.77c-.17.34-.32.62-.44.85s-.28.57-.51,1-.39.78-.51,1l-.46.92q-.29.59-.45.9c-.11.22-.24.45-.37.7-.27.5-.48.74-.63.74s-.33-.15-.53-.45a1.42,1.42,0,0,1-.31-.79,3.47,3.47,0,0,1,.12-.54c.2-.77.42-1.73.66-2.87a19.48,19.48,0,0,0,.4-3.89c0-1,.14-1.46.33-1.46a.94.94,0,0,1,.7.46,1.61,1.61,0,0,1,.35,1,14.77,14.77,0,0,1-.26,2.12c-.17,1.05-.38,2-.61,2.93Q428.09,159,429.05,157.36Z"/><path class="cls-8" d="M439.78,160.29a3.89,3.89,0,0,1-.56,1.82,29,29,0,0,0-.92,3.51,33.23,33.23,0,0,1-.83,3.27c-.45,1.36-1.13,2-2.05,2a2.56,2.56,0,0,1-1.9-.77,2.17,2.17,0,0,1-.77-1.53,1.53,1.53,0,0,1,.15-.64c.1-.21.2-.32.31-.32s.24.1.38.3a5.88,5.88,0,0,1,.39.65,2,2,0,0,0,.56.65,1.15,1.15,0,0,0,.72.3.83.83,0,0,0,.52-.13,1.17,1.17,0,0,0,.34-.42,6.11,6.11,0,0,0,.27-.58,8.34,8.34,0,0,0,.24-.82c.09-.35.17-.65.22-.91s.13-.61.22-1.07l.24-1.11a3.42,3.42,0,0,1-2,1.16,1.64,1.64,0,0,1-1.35-.79,3,3,0,0,1-.57-1.84,8.94,8.94,0,0,1,.62-2.79,11.46,11.46,0,0,1,1.7-3.12,2.85,2.85,0,0,1,2.08-1.38,1.33,1.33,0,0,1,1.1.62,4.91,4.91,0,0,1,.73,2.9,2.33,2.33,0,0,1,0,.34A1.35,1.35,0,0,1,439.78,160.29Zm-5.13,3a.81.81,0,0,0,.18.55.55.55,0,0,0,.44.21,2.88,2.88,0,0,0,1.88-1.19,6.79,6.79,0,0,0,1.53-2.77,5.9,5.9,0,0,1-.11-.8c0-.36-.07-.64-.1-.86a2.14,2.14,0,0,0-.21-.65c-.1-.22-.24-.33-.41-.33-.41,0-.88.38-1.4,1.12a11.13,11.13,0,0,0-1.29,2.5A6.81,6.81,0,0,0,434.65,163.27Z"/></g><g class="cls-9"><path class="cls-8" d="M776.08,280.26a3.51,3.51,0,0,1-1,2.29,7,7,0,0,1-2.52,1.78,7.93,7.93,0,0,1-3.15.67,2.44,2.44,0,0,1-1.67-.66,1.76,1.76,0,0,1-.74-1.23q0-.57.27-.57a3.29,3.29,0,0,1,.63.43,2.11,2.11,0,0,0,1.18.45,1.36,1.36,0,0,1-.42-.52,1.64,1.64,0,0,1-.2-.72,13,13,0,0,1,.38-1.9,33.69,33.69,0,0,0,1.21-7.22H770c-.19,0-.38-.15-.58-.45a1.41,1.41,0,0,1-.31-.73c0-.23.23-.43.68-.59a4.62,4.62,0,0,1,1.63-.25,6.41,6.41,0,0,1,3.43.76A2.43,2.43,0,0,1,776,274a3.34,3.34,0,0,1-.8,2.18,5.62,5.62,0,0,1-2.35,1.58l.15,0a3.75,3.75,0,0,1,2.2.82A2.11,2.11,0,0,1,776.08,280.26Zm-1.39-.08c0-.4-.37-.74-1.1-1a6.17,6.17,0,0,0-2.21-.41c-.28,0-.53-.19-.74-.56a31,31,0,0,1-1.27,5.22,7.54,7.54,0,0,0,2.36-.51,6.93,6.93,0,0,0,2.1-1.23A2.08,2.08,0,0,0,774.69,280.18Zm-.64-7.11a2.2,2.2,0,0,0-1.29-.37,8.76,8.76,0,0,0-1.84.24,1.93,1.93,0,0,1,.45,1.15,28.2,28.2,0,0,1-.56,3.31,7,7,0,0,1,1.19-.69,12.67,12.67,0,0,0,1.29-.69,3.74,3.74,0,0,0,.68-.53,3.07,3.07,0,0,0,.41-.61,1.74,1.74,0,0,0,.2-.78A1.19,1.19,0,0,0,774.05,273.07Z"/><path class="cls-8" d="M783.9,278.43a2.07,2.07,0,0,1-.91,1.74,3.46,3.46,0,0,1-2.07.67,6.5,6.5,0,0,1-2.09-.32,6.35,6.35,0,0,0-.22,1.57,1.55,1.55,0,0,0,.34,1.07,1.45,1.45,0,0,0,1.13.38,4.27,4.27,0,0,0,1.62-.35,5.84,5.84,0,0,1,.91-.35c.28,0,.42.13.42.4s-.33.75-1,1.17a3.49,3.49,0,0,1-1.9.63,2.52,2.52,0,0,1-2-.93,3.54,3.54,0,0,1-.78-2.35,9.08,9.08,0,0,1,2.17-5.58,2.61,2.61,0,0,1,1.89-1.06,2.12,2.12,0,0,1,1.71,1.12A3.86,3.86,0,0,1,783.9,278.43Zm-2.4-1.73a1.68,1.68,0,0,0-1.22.77,6.83,6.83,0,0,0-1.09,1.91,5.38,5.38,0,0,0,1.45.18,3,3,0,0,0,1.42-.33,1,1,0,0,0,.6-.87,1.92,1.92,0,0,0-.39-1.1C782,276.88,781.75,276.7,781.5,276.7Z"/><path class="cls-8" d="M789.26,275.12q.54,0,1,.75a2.49,2.49,0,0,1,.47,1.31c0,.22-.08.34-.25.34s-.3-.12-.54-.35a1,1,0,0,0-.75-.35,2.57,2.57,0,0,0-1.2.56,1.52,1.52,0,0,0-.82,1.18c0,.3.49.83,1.47,1.58a4.87,4.87,0,0,1,1,1.13,2.65,2.65,0,0,1,.45,1.48,2.1,2.1,0,0,1-.87,1.54,3,3,0,0,1-2,.75,3.21,3.21,0,0,1-2-.7c-.59-.47-.89-.91-.89-1.32a.69.69,0,0,1,.11-.41.3.3,0,0,1,.26-.15.74.74,0,0,1,.44.26,2.66,2.66,0,0,0,1.79.78,2.55,2.55,0,0,0,1.35-.27.83.83,0,0,0,.41-.72,1.47,1.47,0,0,0-.46-1,6.2,6.2,0,0,0-1-.91,5.49,5.49,0,0,1-1-1,1.88,1.88,0,0,1-.46-1.18,3.09,3.09,0,0,1,1.33-2.21A3.76,3.76,0,0,1,789.26,275.12Z"/><path class="cls-8" d="M793.27,283c0,.25.11.38.35.38a3.57,3.57,0,0,0,1.47-.43,5.83,5.83,0,0,1,1-.43c.19,0,.29.12.29.38s-.32.83-1,1.34a2.89,2.89,0,0,1-1.72.76,1.72,1.72,0,0,1-1.28-.53,1.59,1.59,0,0,1-.51-1.09,6.81,6.81,0,0,1,.2-1.43c.12-.58.31-1.35.54-2.3s.43-1.75.57-2.37a5,5,0,0,1-1,.22.66.66,0,0,1-.5-.33,1,1,0,0,1-.25-.63c0-.32.69-.63,2.07-.92a17.62,17.62,0,0,0,.28-2.94c0-.4.11-.6.32-.6s.4.14.67.43a1.41,1.41,0,0,1,.4,1,11.59,11.59,0,0,1-.27,1.9,12.85,12.85,0,0,1,1.44-.1c.64,0,1,.17,1,.52s-.17.36-.52.5-1.07.34-2.17.62c-.22,1.05-.5,2.25-.84,3.61A15.73,15.73,0,0,0,793.27,283Z"/><path class="cls-8" d="M812.42,274.28a4.76,4.76,0,0,1-1.65,3.66,9.79,9.79,0,0,1-4.35,2.16Q805.27,285,805,285c-.15,0-.33-.15-.53-.45a1.61,1.61,0,0,1-.3-.9,15.16,15.16,0,0,1,.46-2.39,48.73,48.73,0,0,0,1.5-8.34,1.27,1.27,0,0,1-.38-.8q0-.51,1.08-1a5.21,5.21,0,0,1,2.06-.46,3.37,3.37,0,0,1,2.51,1A3.46,3.46,0,0,1,812.42,274.28Zm-1.4.12a2,2,0,0,0-.54-1.45,1.68,1.68,0,0,0-1.28-.57,3.9,3.9,0,0,0-1.81.6,2.29,2.29,0,0,1,.16.82,29.69,29.69,0,0,1-.78,4.74,8.14,8.14,0,0,0,3.08-1.77A3.32,3.32,0,0,0,811,274.4Z"/><path class="cls-8" d="M813.61,277.56l-.05-1.5c0-.63.12-.94.35-.94s.4.16.58.49a2.24,2.24,0,0,1,.28,1.16c0,.44,0,.78,0,1,.92-1.76,1.8-2.64,2.62-2.64q.78,0,.78.48a.7.7,0,0,1-.17.44,3.42,3.42,0,0,1-.56.46,3.69,3.69,0,0,0-1.42,1.41,9,9,0,0,0-1,2.15c-.24.8-.44,1.47-.58,2l-.33,1.28c-.07.3-.15.6-.25.9-.17.53-.37.8-.59.8s-.33-.13-.44-.39a2,2,0,0,1-.16-.76,7.73,7.73,0,0,1,.27-1.47A19.78,19.78,0,0,0,813.61,277.56Z"/><path class="cls-8" d="M823.47,276a3,3,0,0,1,.6,1.64,3.28,3.28,0,0,1-.39,1.49,1.07,1.07,0,0,1,.19.52,16.17,16.17,0,0,1-.2,1.92c-.13.9-.21,1.5-.24,1.78s0,.5-.07.67-.05.33-.08.49c0,.33-.14.5-.29.5s-.35-.21-.47-.63a6.89,6.89,0,0,1-.21-1.63c-.95,1.5-1.82,2.26-2.63,2.26a2,2,0,0,1-1.43-.79,2.41,2.41,0,0,1-.71-1.63,8.34,8.34,0,0,1,.7-3,11.88,11.88,0,0,1,1.81-3.15,3,3,0,0,1,2.1-1.38A1.64,1.64,0,0,1,823.47,276Zm-.59,2.61c0-1.24-.2-1.86-.59-1.86s-.89.37-1.45,1.11a11.21,11.21,0,0,0-1.39,2.51,6.15,6.15,0,0,0-.58,2.22.73.73,0,0,0,.23.55.72.72,0,0,0,.52.21c.5,0,1.06-.43,1.69-1.27a7.73,7.73,0,0,0,1.3-3.09.39.39,0,0,1,.27-.36Z"/><path class="cls-8" d="M828,285a2.35,2.35,0,0,1-1.74-.91,3.12,3.12,0,0,1-.82-2.16,7.89,7.89,0,0,1,.67-2.89,9.21,9.21,0,0,1,1.73-2.8,2.88,2.88,0,0,1,2.06-1.16,1.38,1.38,0,0,1,1.14.74,2.43,2.43,0,0,1,.5,1.3.5.5,0,0,1-.08.27.29.29,0,0,1-.24.11c-.1,0-.27-.12-.53-.36a1.06,1.06,0,0,0-.68-.36c-.57,0-1.24.63-2,1.9a6.68,6.68,0,0,0-1.14,3.32,1.44,1.44,0,0,0,.31,1,1.26,1.26,0,0,0,1,.36,3.68,3.68,0,0,0,1.27-.21,4.27,4.27,0,0,0,.9-.42,1,1,0,0,1,.5-.21c.2,0,.3.12.3.38s-.37.83-1.11,1.35A3.64,3.64,0,0,1,828,285Z"/><path class="cls-8" d="M834.24,283c0,.25.11.38.35.38a3.57,3.57,0,0,0,1.47-.43,5.44,5.44,0,0,1,1-.43c.19,0,.29.12.29.38s-.32.83-.95,1.34a2.89,2.89,0,0,1-1.72.76,1.72,1.72,0,0,1-1.28-.53,1.59,1.59,0,0,1-.51-1.09A7.42,7.42,0,0,1,833,282c.13-.58.31-1.35.55-2.3s.43-1.75.57-2.37a5,5,0,0,1-1,.22.69.69,0,0,1-.5-.33,1.08,1.08,0,0,1-.24-.63c0-.32.69-.63,2.06-.92a16.72,16.72,0,0,0,.29-2.94c0-.4.11-.6.32-.6s.4.14.67.43a1.39,1.39,0,0,1,.39,1,11.59,11.59,0,0,1-.27,1.9,13.16,13.16,0,0,1,1.45-.1c.64,0,1,.17,1,.52s-.18.36-.52.5-1.07.34-2.17.62c-.22,1.05-.51,2.25-.84,3.61A15.73,15.73,0,0,0,834.24,283Z"/><path class="cls-8" d="M840.57,275.12c.2,0,.39.15.57.46a1.74,1.74,0,0,1,.27.9,20.29,20.29,0,0,1-.46,2.63c-.31,1.46-.7,3.09-1.16,4.91-.18.66-.41,1-.69,1a.48.48,0,0,1-.38-.23,1,1,0,0,1-.16-.52,5.46,5.46,0,0,1,.12-.92c.08-.42.2-1,.35-1.68s.28-1.27.37-1.71.18-.94.28-1.49.17-1,.23-1.34.12-.69.2-1C840.25,275.44,840.41,275.12,840.57,275.12Zm.08-2.84a1.28,1.28,0,0,1,.25-.76.68.68,0,0,1,.52-.36q.26,0,.63.81a3.49,3.49,0,0,1,.36,1.35.56.56,0,0,1-.14.36.45.45,0,0,1-.3.16c-.26,0-.54-.2-.85-.58A1.69,1.69,0,0,1,840.65,272.28Z"/><path class="cls-8" d="M845,285a2.35,2.35,0,0,1-1.74-.91,3.15,3.15,0,0,1-.81-2.16,7.7,7.7,0,0,1,.67-2.89,9.19,9.19,0,0,1,1.72-2.8,2.92,2.92,0,0,1,2.06-1.16,1.38,1.38,0,0,1,1.15.74,2.4,2.4,0,0,1,.49,1.3.43.43,0,0,1-.08.27.27.27,0,0,1-.23.11c-.1,0-.28-.12-.53-.36a1.06,1.06,0,0,0-.68-.36c-.58,0-1.24.63-2,1.9a6.68,6.68,0,0,0-1.14,3.32,1.44,1.44,0,0,0,.31,1,1.24,1.24,0,0,0,1,.36,3.72,3.72,0,0,0,1.27-.21,4.27,4.27,0,0,0,.9-.42,1,1,0,0,1,.49-.21c.2,0,.3.12.3.38s-.36.83-1.1,1.35A3.69,3.69,0,0,1,845,285Z"/><path class="cls-8" d="M855.82,278.43a2.08,2.08,0,0,1-.92,1.74,3.45,3.45,0,0,1-2.06.67,6.5,6.5,0,0,1-2.09-.32,6.4,6.4,0,0,0-.23,1.57,1.6,1.6,0,0,0,.34,1.07,1.48,1.48,0,0,0,1.13.38,4.27,4.27,0,0,0,1.63-.35,5.84,5.84,0,0,1,.91-.35c.28,0,.41.13.41.4s-.32.75-1,1.17a3.44,3.44,0,0,1-1.89.63,2.51,2.51,0,0,1-2-.93,3.54,3.54,0,0,1-.78-2.35,8,8,0,0,1,.61-3,8.33,8.33,0,0,1,1.55-2.61,2.65,2.65,0,0,1,1.9-1.06,2.14,2.14,0,0,1,1.71,1.12A3.86,3.86,0,0,1,855.82,278.43Zm-2.4-1.73a1.7,1.7,0,0,0-1.23.77,7.08,7.08,0,0,0-1.08,1.91,5.33,5.33,0,0,0,1.45.18,2.88,2.88,0,0,0,1.41-.33,1,1,0,0,0,.61-.87,1.92,1.92,0,0,0-.39-1.1C853.93,276.88,853.67,276.7,853.42,276.7Z"/><path class="cls-8" d="M861.18,275.12q.54,0,1,.75a2.58,2.58,0,0,1,.47,1.31c0,.22-.08.34-.25.34s-.3-.12-.54-.35a1.08,1.08,0,0,0-.75-.35,2.53,2.53,0,0,0-1.2.56,1.5,1.5,0,0,0-.82,1.18c0,.3.49.83,1.46,1.58a4.65,4.65,0,0,1,1,1.13,2.66,2.66,0,0,1,.46,1.48,2.1,2.1,0,0,1-.87,1.54,3,3,0,0,1-2,.75,3.23,3.23,0,0,1-2-.7,1.9,1.9,0,0,1-.88-1.32.77.77,0,0,1,.1-.41.32.32,0,0,1,.27-.15.77.77,0,0,1,.44.26,2.66,2.66,0,0,0,1.79.78,2.58,2.58,0,0,0,1.35-.27.83.83,0,0,0,.41-.72,1.52,1.52,0,0,0-.46-1,6.65,6.65,0,0,0-1-.91,5.49,5.49,0,0,1-1-1,1.88,1.88,0,0,1-.46-1.18,3.11,3.11,0,0,1,1.32-2.21A3.78,3.78,0,0,1,861.18,275.12Z"/></g><g class="cls-9"><path class="cls-8" d="M932.67,163.2a3.64,3.64,0,0,1-1.18,2.75,3.81,3.81,0,0,1-2.7,1.11,3.38,3.38,0,0,1-2.5-1,2.77,2.77,0,0,1-1-1.87c0-.4.1-.6.29-.6s.5.32,1,1a3.16,3.16,0,0,0,.77.64,2,2,0,0,0,1,.3,3,3,0,0,0,2-.72,2,2,0,0,0,.87-1.56,2.72,2.72,0,0,0-.58-1.38,13.74,13.74,0,0,0-1.26-1.59,13.43,13.43,0,0,1-1.27-1.61,2.73,2.73,0,0,1-.57-1.36,3.74,3.74,0,0,1,.16-1.06,2.81,2.81,0,0,1,.35-.82,5.77,5.77,0,0,1,1.93-1.58,4.86,4.86,0,0,1,2.21-.72,1,1,0,0,1,.77.38,1.21,1.21,0,0,1,.32.8c0,.14-.11.24-.33.32s-.56.19-1,.31a7.54,7.54,0,0,0-1.2.45c-1.22.59-1.83,1.15-1.83,1.7,0,.29.62,1.12,1.86,2.46a9.63,9.63,0,0,1,1.3,1.81A4,4,0,0,1,932.67,163.2Z"/><path class="cls-8" d="M939.92,157.38c0-.08.13-.12.28-.12s.32.17.52.52a1.93,1.93,0,0,1,.31,1c0,.18-.23,1.2-.7,3.08s-.82,3.38-1.08,4.48q-.19.84-.54.84a.41.41,0,0,1-.35-.22,1.65,1.65,0,0,1-.14-.8,11,11,0,0,1,.36-2.1,9.62,9.62,0,0,1-1.44,2.24,2.09,2.09,0,0,1-1.43.88,1.55,1.55,0,0,1-1.21-.76,2.52,2.52,0,0,1-.58-1.56,16.66,16.66,0,0,1,.89-4.75q.87-2.85,1.47-2.85a.61.61,0,0,1,.5.33,1.37,1.37,0,0,1,.21.75,6.72,6.72,0,0,1-.43,1.29c-.28.74-.57,1.61-.85,2.6a9.42,9.42,0,0,0-.43,2.61.9.9,0,0,0,.15.53.49.49,0,0,0,.39.21c.4,0,.88-.45,1.43-1.34a17.44,17.44,0,0,0,1.52-3.12,22.18,22.18,0,0,0,1-3.3A1.83,1.83,0,0,1,939.92,157.38Z"/><path class="cls-8" d="M946.36,157.26q.54,0,1,.75a2.52,2.52,0,0,1,.47,1.31c0,.23-.08.34-.25.34s-.3-.11-.54-.35a1.09,1.09,0,0,0-.75-.35,2.68,2.68,0,0,0-1.2.56,1.54,1.54,0,0,0-.82,1.18c0,.31.49.84,1.47,1.58a5.08,5.08,0,0,1,1,1.13,2.68,2.68,0,0,1,.45,1.48,2.08,2.08,0,0,1-.87,1.54,3,3,0,0,1-2,.75,3.13,3.13,0,0,1-2-.7c-.59-.47-.89-.9-.89-1.32a.71.71,0,0,1,.11-.41.3.3,0,0,1,.26-.15c.11,0,.25.09.44.26a2.66,2.66,0,0,0,1.79.78,2.58,2.58,0,0,0,1.35-.27.83.83,0,0,0,.41-.72,1.47,1.47,0,0,0-.46-1,6.7,6.7,0,0,0-1-.91,5.18,5.18,0,0,1-1-1,1.86,1.86,0,0,1-.46-1.18,3.13,3.13,0,0,1,1.33-2.21A3.76,3.76,0,0,1,946.36,157.26Z"/><path class="cls-8" d="M950.37,165.18c0,.25.11.38.35.38a3.42,3.42,0,0,0,1.47-.43,5.83,5.83,0,0,1,1-.43c.19,0,.29.13.29.38s-.32.84-1,1.34a2.83,2.83,0,0,1-1.72.76,1.68,1.68,0,0,1-1.28-.53,1.58,1.58,0,0,1-.51-1.09,7.51,7.51,0,0,1,.19-1.43c.13-.58.31-1.34.55-2.3s.43-1.74.57-2.37a4.33,4.33,0,0,1-1,.22.69.69,0,0,1-.51-.33,1.08,1.08,0,0,1-.24-.63c0-.32.69-.63,2.07-.92a17.43,17.43,0,0,0,.28-2.94c0-.4.11-.6.32-.6s.4.15.67.43a1.42,1.42,0,0,1,.4,1,10.74,10.74,0,0,1-.28,1.9c.61-.06,1.09-.1,1.45-.1.64,0,1,.17,1,.52s-.18.37-.52.5a22.27,22.27,0,0,1-2.17.62c-.22,1.06-.51,2.26-.84,3.61A16,16,0,0,0,950.37,165.18Z"/><path class="cls-8" d="M960.29,158.17a3.12,3.12,0,0,1,.61,1.64,3.23,3.23,0,0,1-.4,1.49,1,1,0,0,1,.19.52,15.78,15.78,0,0,1-.2,1.92c-.13.91-.21,1.5-.24,1.78s0,.5-.07.67,0,.33-.08.49c0,.33-.14.5-.29.5s-.34-.21-.46-.63a6.29,6.29,0,0,1-.22-1.63c-.94,1.51-1.82,2.26-2.62,2.26a2,2,0,0,1-1.44-.79,2.39,2.39,0,0,1-.71-1.63,8.34,8.34,0,0,1,.7-3,12.16,12.16,0,0,1,1.81-3.15,3,3,0,0,1,2.1-1.38A1.64,1.64,0,0,1,960.29,158.17Zm-.59,2.61c0-1.24-.19-1.86-.59-1.86s-.89.37-1.44,1.11a11.46,11.46,0,0,0-1.4,2.51,6.36,6.36,0,0,0-.57,2.22.71.71,0,0,0,.22.55.73.73,0,0,0,.52.21c.5,0,1.06-.42,1.69-1.27a7.61,7.61,0,0,0,1.3-3.09.39.39,0,0,1,.27-.36Z"/><path class="cls-8" d="M964.16,157.26c.2,0,.39.16.57.46a1.79,1.79,0,0,1,.27.9,20,20,0,0,1-.46,2.63q-.46,2.19-1.16,4.91c-.18.67-.41,1-.69,1a.44.44,0,0,1-.38-.23.94.94,0,0,1-.16-.52,5.58,5.58,0,0,1,.12-.92c.08-.42.2-1,.35-1.68s.28-1.27.37-1.71.18-.93.28-1.49.17-1,.23-1.34.12-.68.2-1C963.84,157.59,964,157.26,964.16,157.26Zm.08-2.84a1.3,1.3,0,0,1,.25-.76.68.68,0,0,1,.52-.36q.25,0,.63.81a3.49,3.49,0,0,1,.36,1.35.54.54,0,0,1-.14.36.41.41,0,0,1-.3.16c-.26,0-.54-.19-.85-.58A1.66,1.66,0,0,1,964.24,154.42Z"/><path class="cls-8" d="M970,158.85c.64-1.06,1.17-1.59,1.58-1.59s.79.28,1.16.82a3.14,3.14,0,0,1,.55,1.74,14.8,14.8,0,0,1-.53,3.52c-.63,2.56-1.21,3.84-1.72,3.84-.23,0-.35-.2-.35-.6a8.69,8.69,0,0,1,.35-1.71c.22-.86.44-1.7.63-2.54a8.85,8.85,0,0,0,.3-1.88,2.18,2.18,0,0,0-.15-.93c-.1-.2-.21-.3-.31-.3a.53.53,0,0,0-.31.12,1.86,1.86,0,0,0-.35.4c-.14.19-.26.37-.38.55s-.26.44-.44.77-.32.62-.43.85l-.51,1c-.22.44-.39.78-.51,1l-.46.92q-.28.58-.45.9l-.38.7c-.26.49-.47.74-.63.74s-.33-.15-.53-.45a1.48,1.48,0,0,1-.3-.79,2.94,2.94,0,0,1,.11-.54c.2-.77.42-1.73.67-2.87a21.17,21.17,0,0,0,.4-3.89c0-1,.14-1.46.33-1.46a1,1,0,0,1,.7.46,1.67,1.67,0,0,1,.35,1,16.65,16.65,0,0,1-.26,2.12c-.18,1-.38,2-.62,2.93Q969.07,160.45,970,158.85Z"/><path class="cls-8" d="M980,158.17a3,3,0,0,1,.61,1.64,3.23,3.23,0,0,1-.4,1.49,1,1,0,0,1,.19.52,15.78,15.78,0,0,1-.2,1.92c-.13.91-.21,1.5-.24,1.78s-.05.5-.07.67,0,.33-.08.49c0,.33-.14.5-.28.5s-.35-.21-.47-.63a6.29,6.29,0,0,1-.22-1.63c-.94,1.51-1.82,2.26-2.62,2.26a2,2,0,0,1-1.44-.79,2.43,2.43,0,0,1-.71-1.63,8.34,8.34,0,0,1,.7-3,12.16,12.16,0,0,1,1.81-3.15,3,3,0,0,1,2.1-1.38A1.64,1.64,0,0,1,980,158.17Zm-.59,2.61c0-1.24-.19-1.86-.59-1.86s-.89.37-1.44,1.11a11.46,11.46,0,0,0-1.4,2.51,6.36,6.36,0,0,0-.57,2.22.71.71,0,0,0,.22.55.73.73,0,0,0,.52.21c.5,0,1.06-.42,1.69-1.27a7.61,7.61,0,0,0,1.3-3.09.41.41,0,0,1,.27-.36Z"/><path class="cls-8" d="M982.6,167.18c-.14,0-.32-.14-.52-.43a1.4,1.4,0,0,1-.3-.81,20,20,0,0,1,.5-2.6c.33-1.48.67-3.26,1-5.35a36.83,36.83,0,0,0,.5-5.73c0-.4.12-.6.35-.6s.38.2.62.59a2.13,2.13,0,0,1,.37,1.15,41.22,41.22,0,0,1-.86,7c1.26-2.15,2.41-3.22,3.43-3.22a1.5,1.5,0,0,1,1.27.92,4.49,4.49,0,0,1,.52,2.19,10.12,10.12,0,0,1-2.15,5.72,2.77,2.77,0,0,1-2.07,1.17,2.84,2.84,0,0,1-2.13-1.38l0,0C982.88,166.74,982.71,167.18,982.6,167.18Zm2.53-1.54c.69,0,1.37-.59,2-1.77a7.53,7.53,0,0,0,1-3.73c0-.79-.2-1.18-.58-1.18-.61,0-1.3.54-2.06,1.62a16.79,16.79,0,0,0-2,3.86C984.06,165.24,984.58,165.64,985.13,165.64Z"/><path class="cls-8" d="M992.23,157.26c.2,0,.39.16.57.46a1.79,1.79,0,0,1,.27.9,20,20,0,0,1-.46,2.63q-.47,2.19-1.16,4.91c-.18.67-.41,1-.69,1a.44.44,0,0,1-.38-.23.87.87,0,0,1-.16-.52,5.58,5.58,0,0,1,.12-.92c.08-.42.2-1,.35-1.68s.28-1.27.37-1.71.18-.93.27-1.49l.24-1.34c0-.34.12-.68.19-1C991.91,157.59,992.07,157.26,992.23,157.26Zm.07-2.84a1.32,1.32,0,0,1,.26-.76.68.68,0,0,1,.52-.36q.25,0,.63.81a3.49,3.49,0,0,1,.36,1.35.54.54,0,0,1-.14.36.41.41,0,0,1-.31.16c-.25,0-.53-.19-.85-.58A1.73,1.73,0,0,1,992.3,154.42Z"/><path class="cls-8" d="M997.19,153.34A50.94,50.94,0,0,1,996,163.1c-.53,2.72-.9,4.08-1.12,4.08s-.32-.14-.51-.44a1.38,1.38,0,0,1-.3-.68c0-.16.16-1,.46-2.48s.62-3.33.93-5.51a43.71,43.71,0,0,0,.46-5.89,1,1,0,0,1,.06-.4q.06-.12.27-.12t.6.57A2,2,0,0,1,997.19,153.34Z"/><path class="cls-8" d="M999.91,157.26c.2,0,.39.16.57.46a1.79,1.79,0,0,1,.27.9,20,20,0,0,1-.46,2.63q-.46,2.19-1.16,4.91c-.18.67-.41,1-.69,1a.46.46,0,0,1-.38-.23.94.94,0,0,1-.16-.52,5.58,5.58,0,0,1,.12-.92c.08-.42.2-1,.35-1.68s.28-1.27.37-1.71.18-.93.28-1.49.17-1,.23-1.34.12-.68.2-1C999.59,157.59,999.75,157.26,999.91,157.26Zm.08-2.84a1.3,1.3,0,0,1,.25-.76.68.68,0,0,1,.52-.36q.25,0,.63.81a3.49,3.49,0,0,1,.36,1.35.54.54,0,0,1-.14.36.41.41,0,0,1-.3.16c-.26,0-.54-.19-.85-.58A1.66,1.66,0,0,1,1000,154.42Z"/><path class="cls-8" d="M1003.52,165.18c0,.25.11.38.35.38a3.42,3.42,0,0,0,1.47-.43,5.83,5.83,0,0,1,1-.43c.19,0,.29.13.29.38s-.32.84-1,1.34a2.83,2.83,0,0,1-1.72.76,1.68,1.68,0,0,1-1.28-.53,1.58,1.58,0,0,1-.51-1.09,7.51,7.51,0,0,1,.19-1.43c.13-.58.31-1.34.55-2.3s.43-1.74.57-2.37a4.33,4.33,0,0,1-1,.22.69.69,0,0,1-.51-.33,1.08,1.08,0,0,1-.24-.63c0-.32.69-.63,2.07-.92a17.43,17.43,0,0,0,.28-2.94c0-.4.11-.6.32-.6s.4.15.67.43a1.42,1.42,0,0,1,.4,1,11.45,11.45,0,0,1-.27,1.9c.6-.06,1.08-.1,1.44-.1.64,0,1,.17,1,.52s-.18.37-.52.5a21.41,21.41,0,0,1-2.17.62c-.22,1.06-.5,2.26-.84,3.61A16,16,0,0,0,1003.52,165.18Z"/><path class="cls-8" d="M1014.11,157.26c.17,0,.35.16.55.47a2,2,0,0,1,.29,1.05,17.14,17.14,0,0,1-.65,2.72c-.43,1.55-.73,2.6-.88,3.15s-.36,1.29-.62,2.2l-.76,2.67c-.53,1.91-1.32,2.86-2.38,2.86a2.68,2.68,0,0,1-1.74-.69,1.9,1.9,0,0,1-.82-1.43,1.26,1.26,0,0,1,.19-.62c.14-.22.25-.34.35-.34s.25.15.46.44c.61.88,1.14,1.32,1.57,1.32s.63-.36.89-1.09.52-1.54.76-2.46.37-1.42.4-1.51l.09-.36c0-.14.07-.28.11-.4-.76,1.3-1.5,1.94-2.23,1.94a1.54,1.54,0,0,1-1.23-.78,3,3,0,0,1-.57-1.84,13.85,13.85,0,0,1,.41-2.86,18.6,18.6,0,0,1,1-3.12q.56-1.32.9-1.32a.67.67,0,0,1,.53.33,1.1,1.1,0,0,1,.25.67,5.47,5.47,0,0,1-.41,1.42,15.56,15.56,0,0,0-1.29,5.16.84.84,0,0,0,.16.53.46.46,0,0,0,.38.21c.38,0,.84-.42,1.37-1.28a17.25,17.25,0,0,0,1.46-3c.37-1,.76-2.25,1.16-3.78A.3.3,0,0,1,1014.11,157.26Z"/></g><g class="cls-9"><path class="cls-8" d="M974.26,337.28a3.26,3.26,0,0,0-2.22,1.38,12.5,12.5,0,0,0-2.08,3.45,10.14,10.14,0,0,0-.86,3.85,2.08,2.08,0,0,0,.37,1.23,1,1,0,0,0,.86.51,2.81,2.81,0,0,0,1.79-1.05,11.74,11.74,0,0,0,1.9-2.71,4.68,4.68,0,0,1-1.32.3A1,1,0,0,1,972,344a.83.83,0,0,1-.3-.55c0-.22.22-.39.68-.51a6.39,6.39,0,0,1,1.72-.19,1.06,1.06,0,0,1,.93.61,2.72,2.72,0,0,1,.35,1.42,20.74,20.74,0,0,1-.79,3.81q-.79,3-1.2,3c-.27,0-.41-.2-.41-.58a7.09,7.09,0,0,1,.23-1.52c.16-.64.32-1.3.49-2s.31-1.23.41-1.65a9.34,9.34,0,0,1-1.76,2.63,2.86,2.86,0,0,1-1.92,1,2.52,2.52,0,0,1-1.84-1.09,3.69,3.69,0,0,1-.9-2.39,12.11,12.11,0,0,1,1-4.5,15.09,15.09,0,0,1,2.57-4.25,4.14,4.14,0,0,1,2.89-1.77c.3,0,.59.22.87.67a2.13,2.13,0,0,1,.43,1.08c0,.27,0,.41-.17.41a1.66,1.66,0,0,1-.35-.15A1.44,1.44,0,0,0,974.26,337.28Z"/><path class="cls-8" d="M978.09,342l-.05-1.5c0-.63.12-.94.35-.94s.4.16.58.49a2.24,2.24,0,0,1,.28,1.16c0,.44,0,.78,0,1,.92-1.76,1.8-2.64,2.62-2.64q.78,0,.78.48a.7.7,0,0,1-.17.44,3.42,3.42,0,0,1-.56.46,3.69,3.69,0,0,0-1.42,1.41,9,9,0,0,0-1,2.15c-.24.8-.44,1.47-.58,2l-.33,1.28c-.07.3-.15.6-.25.9-.17.53-.37.8-.59.8s-.32-.13-.44-.39a2,2,0,0,1-.16-.76,7.73,7.73,0,0,1,.27-1.47A19.78,19.78,0,0,0,978.09,342Z"/><path class="cls-8" d="M983,343.12a7.48,7.48,0,0,1,1.45-2.57,2.48,2.48,0,0,1,1.84-1,1.83,1.83,0,0,1,1.58,1,4.46,4.46,0,0,1,.64,2.46,8.6,8.6,0,0,1-.56,3,7,7,0,0,1-1.53,2.5,2.91,2.91,0,0,1-2.08,1,1.58,1.58,0,0,1-1.35-.94,4.78,4.78,0,0,1-.54-2.39A8.94,8.94,0,0,1,983,343.12Zm4.17-.18a4.85,4.85,0,0,0-.17-1.29,1.76,1.76,0,0,0-.51-.89,3.63,3.63,0,0,0-1.89,2.13,8.07,8.07,0,0,0-.78,3.29q0,1.53.6,1.92a3.26,3.26,0,0,0,1.95-2A7.39,7.39,0,0,0,987.2,342.94Z"/><path class="cls-8" d="M996,341.66l-.11,3.76a15.32,15.32,0,0,0,.11,2.26,9.65,9.65,0,0,0,1.18-2.11,14.1,14.1,0,0,0,.75-2.25c.16-.7.31-1.35.43-1.95s.24-1.09.34-1.45.23-.54.37-.54a.67.67,0,0,1,.54.31,1.11,1.11,0,0,1,.24.71,13.41,13.41,0,0,1-.73,3.36,18.92,18.92,0,0,1-1.63,3.95c-.66,1.19-1.19,1.79-1.56,1.79s-.65-.26-.83-.78a10.73,10.73,0,0,1-.31-3c0-1.48,0-2.75.05-3.83a50.31,50.31,0,0,1-1.94,5.68c-.57,1.28-1,1.92-1.34,1.92a.71.71,0,0,1-.47-.26,2,2,0,0,1-.39-.68,20.89,20.89,0,0,1-.59-4.05c-.17-2-.25-3.42-.25-4.27,0-.55.13-.82.4-.82s.44.16.64.5a2.3,2.3,0,0,1,.34,1c0,.32.06,1.23.09,2.72a32.34,32.34,0,0,0,.29,4,29.22,29.22,0,0,0,1.32-3.56q.66-2.15,1.08-3.36c.28-.82.54-1.22.77-1.22a1,1,0,0,1,.87.61A3.29,3.29,0,0,1,996,341.66Z"/><path class="cls-8" d="M1002.09,347.46c0,.25.12.38.35.38a3.57,3.57,0,0,0,1.47-.43,5.83,5.83,0,0,1,1-.43c.19,0,.29.12.29.38s-.32.83-.95,1.34a2.89,2.89,0,0,1-1.72.76,1.72,1.72,0,0,1-1.28-.53,1.62,1.62,0,0,1-.5-1.09,6.7,6.7,0,0,1,.19-1.43c.12-.58.31-1.35.54-2.3s.43-1.75.57-2.37a5,5,0,0,1-1,.22.66.66,0,0,1-.5-.33,1,1,0,0,1-.25-.63c0-.32.69-.63,2.07-.92a17.62,17.62,0,0,0,.28-2.94c0-.4.11-.6.32-.6s.4.14.67.43a1.41,1.41,0,0,1,.4,1,11.59,11.59,0,0,1-.27,1.9,12.85,12.85,0,0,1,1.44-.1c.64,0,1,.17,1,.52s-.17.36-.52.5-1.07.34-2.17.62c-.22,1.05-.5,2.25-.84,3.61A15.73,15.73,0,0,0,1002.09,347.46Z"/><path class="cls-8" d="M1008.34,334.72c0-.52.13-.78.38-.78s.42.2.65.6a2.4,2.4,0,0,1,.34,1.16,31.05,31.05,0,0,1-.52,4.43c-.34,2.08-.79,4.17-1.34,6.25a36.09,36.09,0,0,1,2.66-5.23c.72-1.08,1.33-1.61,1.84-1.61q.4,0,1,.9a3.49,3.49,0,0,1,.55,1.8,13.48,13.48,0,0,1-.4,2.7q-1,4.51-1.86,4.52c-.23,0-.35-.2-.35-.6a9.26,9.26,0,0,1,.38-2,20.11,20.11,0,0,0,.84-4.18,1.11,1.11,0,0,0-.14-.6.4.4,0,0,0-.35-.24.82.82,0,0,0-.51.28,4.79,4.79,0,0,0-.73,1c-.36.6-.73,1.27-1.12,2s-.62,1.19-.7,1.35-.22.43-.41.83-.35.69-.44.89-.21.4-.35.63c-.24.44-.43.66-.56.66s-.29-.15-.51-.45a1.43,1.43,0,0,1-.31-.76,6.58,6.58,0,0,1,.17-1.17c.53-2.56.86-4.32,1-5.26A55.56,55.56,0,0,0,1008.34,334.72Z"/></g><g class="cls-9"><g class="cls-9"><path class="cls-8" d="M626.75,337.85,624,338c-.17,0-.35-.14-.53-.42a1.51,1.51,0,0,1-.27-.82c0-.24.31-.39.92-.46s2-.1,4-.1a6.91,6.91,0,0,1,2.65.44c.7.29,1,.62,1,1s-.17.38-.52.38-.84,0-1.46-.08-1.23-.09-1.8-.1a2,2,0,0,1,0,.44c0,.49-.42,2.79-1.24,6.88-.09.43-.22,1.09-.39,2s-.29,1.54-.38,1.9c-.15.71-.28,1.06-.4,1.06s-.33-.15-.53-.45a1.68,1.68,0,0,1-.29-.91c0-.31.28-1.88.86-4.73A59.34,59.34,0,0,0,626.75,337.85Z"/><path class="cls-8" d="M631.86,343.85a7.65,7.65,0,0,1,1.45-2.57,2.53,2.53,0,0,1,1.84-1,1.88,1.88,0,0,1,1.59,1,4.54,4.54,0,0,1,.63,2.46,8.54,8.54,0,0,1-.55,3,7,7,0,0,1-1.54,2.5,2.89,2.89,0,0,1-2.07,1,1.57,1.57,0,0,1-1.36-.94,4.75,4.75,0,0,1-.54-2.39A9.19,9.19,0,0,1,631.86,343.85Zm4.18-.18a4.57,4.57,0,0,0-.18-1.29,1.73,1.73,0,0,0-.51-.89,3.59,3.59,0,0,0-1.88,2.13,8,8,0,0,0-.79,3.29c0,1,.2,1.67.61,1.92a3.2,3.2,0,0,0,1.94-2A7.42,7.42,0,0,0,636,343.67Z"/><path class="cls-8" d="M639.07,343.85a7.47,7.47,0,0,1,1.44-2.57,2.55,2.55,0,0,1,1.85-1,1.85,1.85,0,0,1,1.58,1,4.55,4.55,0,0,1,.64,2.46,8.56,8.56,0,0,1-.56,3,6.86,6.86,0,0,1-1.53,2.5,2.93,2.93,0,0,1-2.08,1,1.56,1.56,0,0,1-1.35-.94,4.75,4.75,0,0,1-.54-2.39A8.94,8.94,0,0,1,639.07,343.85Zm4.17-.18a5,5,0,0,0-.17-1.29,1.81,1.81,0,0,0-.51-.89,3.63,3.63,0,0,0-1.89,2.13,8.13,8.13,0,0,0-.79,3.29c0,1,.21,1.67.61,1.92a3.23,3.23,0,0,0,2-2A7.54,7.54,0,0,0,643.24,343.67Z"/><path class="cls-8" d="M648.77,336.35a50.15,50.15,0,0,1-1.24,9.76q-.79,4.08-1.11,4.08c-.15,0-.32-.15-.52-.44a1.44,1.44,0,0,1-.29-.68c0-.16.15-1,.46-2.48s.62-3.33.92-5.51a42.13,42.13,0,0,0,.46-5.89.92.92,0,0,1,.07-.4q.06-.12.27-.12c.14,0,.33.19.59.57A2,2,0,0,1,648.77,336.35Z"/><path class="cls-8" d="M654.09,340.27c.36,0,.7.25,1,.75a2.55,2.55,0,0,1,.48,1.31c0,.23-.08.34-.25.34s-.3-.12-.54-.35A1.13,1.13,0,0,0,654,342a2.59,2.59,0,0,0-1.2.56,1.51,1.51,0,0,0-.82,1.18c0,.31.49.83,1.46,1.58a4.65,4.65,0,0,1,1,1.13,2.66,2.66,0,0,1,.46,1.48,2.08,2.08,0,0,1-.87,1.54,3,3,0,0,1-2,.75,3.18,3.18,0,0,1-2-.7,1.87,1.87,0,0,1-.88-1.32.71.71,0,0,1,.1-.41.32.32,0,0,1,.27-.15.84.84,0,0,1,.44.26,2.64,2.64,0,0,0,1.79.78,2.51,2.51,0,0,0,1.34-.27.82.82,0,0,0,.42-.72,1.52,1.52,0,0,0-.46-1,7.22,7.22,0,0,0-1-.91,4.92,4.92,0,0,1-1-1,1.88,1.88,0,0,1-.46-1.18,3.12,3.12,0,0,1,1.32-2.21A3.78,3.78,0,0,1,654.09,340.27Z"/><path class="cls-8" d="M663.83,350.23c-.13,0-.28-.13-.44-.38a1.25,1.25,0,0,1-.24-.62,5,5,0,0,1,.16-.94q.8-3.6,1.08-5.14a4.24,4.24,0,0,1-.94.2.7.7,0,0,1-.51-.28.94.94,0,0,1-.25-.62q0-.34.72-.6c.61-.19,1-.31,1.27-.36.1-.64.18-1.13.24-1.48a12.72,12.72,0,0,1,1-4,2,2,0,0,1,1.77-1.22,1.5,1.5,0,0,1,1.3.79,3.37,3.37,0,0,1,.51,1.86c0,.71-.15,1.07-.45,1.07s-.46-.36-.62-1.08a2.34,2.34,0,0,0-.27-.74.53.53,0,0,0-.46-.34.61.61,0,0,0-.49.31,3.11,3.11,0,0,0-.4.89,19.53,19.53,0,0,0-.63,3l-.13.7a6.6,6.6,0,0,1,1.17-.1,1.64,1.64,0,0,1,.84.16.48.48,0,0,1,.26.4c0,.25-.17.45-.52.58a16.65,16.65,0,0,1-2.05.52,67.45,67.45,0,0,1-1.55,6.86C664.08,350,664,350.23,663.83,350.23Z"/><path class="cls-8" d="M669.3,343.85a7.48,7.48,0,0,1,1.45-2.57,2.51,2.51,0,0,1,1.84-1,1.85,1.85,0,0,1,1.58,1,4.46,4.46,0,0,1,.64,2.46,8.56,8.56,0,0,1-.56,3,6.86,6.86,0,0,1-1.53,2.5,2.91,2.91,0,0,1-2.08,1,1.56,1.56,0,0,1-1.35-.94,4.75,4.75,0,0,1-.54-2.39A8.94,8.94,0,0,1,669.3,343.85Zm4.17-.18a5,5,0,0,0-.17-1.29,1.81,1.81,0,0,0-.51-.89,3.63,3.63,0,0,0-1.89,2.13,8.11,8.11,0,0,0-.78,3.29q0,1.54.6,1.92a3.23,3.23,0,0,0,1.95-2A7.39,7.39,0,0,0,673.47,343.67Z"/><path class="cls-8" d="M676.83,342.71l-.05-1.5c0-.63.12-.94.35-.94s.4.16.58.49a2.27,2.27,0,0,1,.28,1.16c0,.45,0,.78,0,1,.92-1.76,1.79-2.64,2.62-2.64q.78,0,.78.48a.67.67,0,0,1-.17.44,3.34,3.34,0,0,1-.56.46,3.83,3.83,0,0,0-1.42,1.41,9,9,0,0,0-1,2.15c-.24.8-.44,1.47-.58,2l-.33,1.28c-.07.31-.16.61-.25.9-.17.53-.37.8-.59.8s-.33-.13-.44-.39a1.92,1.92,0,0,1-.16-.76,7.73,7.73,0,0,1,.27-1.47A19.72,19.72,0,0,0,676.83,342.71Z"/></g><g class="cls-9"><path class="cls-8" d="M625.25,360.26c0-.09.13-.13.27-.13s.36.18.69.54a1.7,1.7,0,0,1,.52,1,15.66,15.66,0,0,0,.61,2.55c.36,1.22.77,2.46,1.24,3.71.59-.88,1.34-2.05,2.24-3.51s1.57-2.5,2-3.11.75-.92.94-.92a.86.86,0,0,1,.61.4,1.25,1.25,0,0,1,.31.76,6.46,6.46,0,0,1-.06.82c0,.31-.11.71-.21,1.21s-.2.93-.27,1.3-.21.94-.39,1.71-.32,1.39-.42,1.85l-.33,1.68c-.13.66-.23,1.2-.31,1.62s-.16.83-.25,1.23c-.16.77-.31,1.16-.45,1.16s-.28-.16-.42-.48a3.27,3.27,0,0,1-.21-1.29,26.59,26.59,0,0,1,.55-3.71c.36-1.93.76-3.63,1.18-5.08q-2.93,4.61-3.6,5.5t-1.11.9c-.29,0-.57-.21-.82-.62a25.71,25.71,0,0,1-1.54-4.92c-.18,1.4-.38,2.6-.6,3.59s-.36,1.65-.43,2-.13.6-.17.81-.11.46-.17.75-.12.52-.17.71-.1.39-.15.61-.1.4-.13.53l-.12.38c-.09.23-.15.34-.19.34s-.29-.17-.48-.52a2.1,2.1,0,0,1-.29-1q0-.48,1-5.52a45.78,45.78,0,0,0,1-6.32A1,1,0,0,1,625.25,360.26Z"/><path class="cls-8" d="M640.82,365.18a3,3,0,0,1,.61,1.64,3.27,3.27,0,0,1-.4,1.49,1,1,0,0,1,.19.52,16.17,16.17,0,0,1-.2,1.92c-.13.91-.21,1.5-.24,1.78s0,.5-.07.67-.05.33-.08.49c0,.33-.14.5-.28.5s-.35-.21-.47-.63a6.29,6.29,0,0,1-.22-1.63c-.94,1.51-1.82,2.26-2.62,2.26a2,2,0,0,1-1.44-.79,2.45,2.45,0,0,1-.71-1.63,8.34,8.34,0,0,1,.7-3,12.16,12.16,0,0,1,1.81-3.15,3,3,0,0,1,2.1-1.38A1.64,1.64,0,0,1,640.82,365.18Zm-.59,2.61c0-1.24-.19-1.86-.58-1.86s-.9.37-1.45,1.11a11.46,11.46,0,0,0-1.4,2.51,6.31,6.31,0,0,0-.57,2.22.71.71,0,0,0,.22.55.73.73,0,0,0,.52.21c.5,0,1.06-.42,1.69-1.27a7.59,7.59,0,0,0,1.3-3.09.41.41,0,0,1,.27-.36Z"/><path class="cls-8" d="M646.78,365.86c.64-1.06,1.17-1.59,1.57-1.59a1.47,1.47,0,0,1,1.16.82,3.06,3.06,0,0,1,.55,1.74,14.8,14.8,0,0,1-.52,3.52c-.64,2.56-1.21,3.84-1.72,3.84-.23,0-.35-.2-.35-.6a8.4,8.4,0,0,1,.34-1.71c.23-.86.44-1.71.64-2.54a9.37,9.37,0,0,0,.29-1.88,2.18,2.18,0,0,0-.15-.93q-.15-.3-.3-.3a.53.53,0,0,0-.31.12,1.63,1.63,0,0,0-.36.4c-.13.19-.26.37-.37.55s-.26.44-.44.77l-.44.85c-.11.23-.28.57-.51,1l-.5,1c-.12.23-.28.53-.47.92s-.34.69-.45.9-.23.45-.37.7c-.27.49-.48.74-.63.74s-.33-.15-.53-.45a1.5,1.5,0,0,1-.31-.79,3,3,0,0,1,.12-.54c.2-.77.42-1.73.66-2.87a19.56,19.56,0,0,0,.4-3.89c0-1,.14-1.46.34-1.46a.92.92,0,0,1,.69.46,1.6,1.6,0,0,1,.36,1,15.47,15.47,0,0,1-.27,2.12c-.17,1.05-.38,2-.61,2.93Q645.82,367.46,646.78,365.86Z"/><path class="cls-8" d="M656.76,365.18a3.07,3.07,0,0,1,.6,1.64,3.15,3.15,0,0,1-.4,1.49,1,1,0,0,1,.2.52,16.17,16.17,0,0,1-.2,1.92c-.14.91-.21,1.5-.24,1.78s-.05.5-.07.67,0,.33-.08.49c0,.33-.14.5-.29.5s-.35-.21-.47-.63a6.81,6.81,0,0,1-.21-1.63c-1,1.51-1.82,2.26-2.63,2.26a2,2,0,0,1-1.44-.79,2.44,2.44,0,0,1-.7-1.63,8.34,8.34,0,0,1,.7-3,11.88,11.88,0,0,1,1.81-3.15,3,3,0,0,1,2.1-1.38A1.64,1.64,0,0,1,656.76,365.18Zm-.59,2.61c0-1.24-.2-1.86-.59-1.86s-.89.37-1.45,1.11a11.89,11.89,0,0,0-1.4,2.51,6.31,6.31,0,0,0-.57,2.22.75.75,0,0,0,.22.55.76.76,0,0,0,.53.21c.5,0,1.06-.42,1.69-1.27a7.73,7.73,0,0,0,1.3-3.09.39.39,0,0,1,.27-.36Z"/><path class="cls-8" d="M665,368.79a3.9,3.9,0,0,1-.55,1.82,28,28,0,0,0-.92,3.51,33.23,33.23,0,0,1-.83,3.27c-.45,1.36-1.13,2-2,2a2.58,2.58,0,0,1-1.9-.77,2.17,2.17,0,0,1-.77-1.53,1.5,1.5,0,0,1,.15-.64c.1-.21.2-.32.31-.32s.24.1.38.3a5.88,5.88,0,0,1,.39.65,2.19,2.19,0,0,0,.55.65,1.17,1.17,0,0,0,.73.3.83.83,0,0,0,.52-.13,1.38,1.38,0,0,0,.34-.42c.1-.19.19-.39.27-.58s.15-.47.24-.82.17-.66.22-.91.13-.61.22-1.07l.24-1.11a3.47,3.47,0,0,1-2,1.16,1.64,1.64,0,0,1-1.35-.79,3.07,3.07,0,0,1-.57-1.84,8.66,8.66,0,0,1,.62-2.79,11.46,11.46,0,0,1,1.7-3.12,2.85,2.85,0,0,1,2.08-1.38,1.33,1.33,0,0,1,1.1.62,4.91,4.91,0,0,1,.73,2.9,2.44,2.44,0,0,1,0,.34A1.33,1.33,0,0,1,665,368.79Zm-5.12,3a.81.81,0,0,0,.18.55.54.54,0,0,0,.44.21,2.92,2.92,0,0,0,1.88-1.19,6.86,6.86,0,0,0,1.53-2.77,5.9,5.9,0,0,1-.11-.8c0-.36-.07-.65-.1-.86a2.14,2.14,0,0,0-.21-.65c-.1-.22-.24-.33-.41-.33-.41,0-.88.37-1.4,1.12a11.13,11.13,0,0,0-1.29,2.5A6.81,6.81,0,0,0,659.84,371.77Z"/><path class="cls-8" d="M672.57,367.58a2.08,2.08,0,0,1-.92,1.74,3.39,3.39,0,0,1-2.07.67,6.59,6.59,0,0,1-2.09-.32,6.94,6.94,0,0,0-.22,1.57,1.53,1.53,0,0,0,.34,1.07,1.48,1.48,0,0,0,1.13.38,4.19,4.19,0,0,0,1.62-.35,7.87,7.87,0,0,1,.92-.35.36.36,0,0,1,.41.4c0,.36-.32.75-1,1.17a3.46,3.46,0,0,1-1.89.63,2.51,2.51,0,0,1-2-.93,3.53,3.53,0,0,1-.78-2.35,8.19,8.19,0,0,1,.6-3,8.78,8.78,0,0,1,1.56-2.61,2.65,2.65,0,0,1,1.9-1.06,2.14,2.14,0,0,1,1.71,1.12A3.91,3.91,0,0,1,672.57,367.58Zm-2.4-1.73a1.73,1.73,0,0,0-1.23.77,7.08,7.08,0,0,0-1.08,1.91,5.33,5.33,0,0,0,1.45.18,2.88,2.88,0,0,0,1.41-.33,1,1,0,0,0,.61-.87,1.92,1.92,0,0,0-.39-1.1C670.68,366,670.42,365.85,670.17,365.85Z"/><path class="cls-8" d="M683.67,364.27c.32,0,.6.28.85.83a4.51,4.51,0,0,1,.37,1.88,17.16,17.16,0,0,1-.29,2.73,19.47,19.47,0,0,1-.79,3.08c-.33.93-.65,1.4-1,1.4s-.33-.18-.33-.55a15.26,15.26,0,0,1,.55-2.7,14.84,14.84,0,0,0,.54-3.42c0-.85-.1-1.27-.31-1.27s-.57.29-.92.88-.71,1.29-1.1,2.12l-.64,1.33-.12.25-.16.34c-.06.12-.21.48-.44,1.08a15.26,15.26,0,0,1-.63,1.41c-.18.34-.34.51-.47.51s-.28-.11-.44-.32a1,1,0,0,1-.24-.6,5.07,5.07,0,0,1,.29-1.16,16.08,16.08,0,0,0,.83-4.84,1.52,1.52,0,0,0-.15-.71c-.09-.19-.2-.29-.31-.29a.53.53,0,0,0-.37.19,3.38,3.38,0,0,0-.48.68q-.29.5-.51.93l-.67,1.37q-.45.93-.69,1.38l-.53,1-.47.91c-.11.21-.23.45-.37.7-.29.49-.5.74-.63.74s-.31-.15-.52-.45a1.44,1.44,0,0,1-.32-.68,3.63,3.63,0,0,1,.07-.57c0-.23.09-.45.13-.66l.23-.95c.1-.42.21-.91.35-1.48a16.17,16.17,0,0,0,.3-2.34c.07-1,.12-1.72.15-2.18s.12-.69.27-.69a.92.92,0,0,1,.69.46,1.52,1.52,0,0,1,.34.92,26.61,26.61,0,0,1-1,5.8q1.78-4.2,2.25-5c.3-.52.57-.94.79-1.26a1.68,1.68,0,0,1,1.26-.86c.25,0,.56.28.91.83a3,3,0,0,1,.54,1.67,13.93,13.93,0,0,1-.2,2.08C681.52,365.8,682.65,364.27,683.67,364.27Z"/><path class="cls-8" d="M692.38,367.58a2.07,2.07,0,0,1-.91,1.74,3.39,3.39,0,0,1-2.07.67,6.5,6.5,0,0,1-2.09-.32,6.41,6.41,0,0,0-.22,1.57,1.53,1.53,0,0,0,.34,1.07,1.47,1.47,0,0,0,1.13.38,4.27,4.27,0,0,0,1.62-.35,8.19,8.19,0,0,1,.91-.35c.28,0,.42.13.42.4s-.33.75-1,1.17a3.49,3.49,0,0,1-1.89.63,2.53,2.53,0,0,1-2-.93,3.57,3.57,0,0,1-.77-2.35,8.19,8.19,0,0,1,.6-3,8.38,8.38,0,0,1,1.56-2.61,2.65,2.65,0,0,1,1.89-1.06,2.12,2.12,0,0,1,1.71,1.12A3.91,3.91,0,0,1,692.38,367.58Zm-2.4-1.73a1.71,1.71,0,0,0-1.22.77,6.83,6.83,0,0,0-1.09,1.91,5.38,5.38,0,0,0,1.45.18,3,3,0,0,0,1.42-.33,1,1,0,0,0,.6-.87,1.92,1.92,0,0,0-.39-1.1C690.49,366,690.24,365.85,690,365.85Z"/><path class="cls-8" d="M697.24,365.86c.64-1.06,1.17-1.59,1.58-1.59a1.5,1.5,0,0,1,1.16.82,3.14,3.14,0,0,1,.55,1.74,14.88,14.88,0,0,1-.53,3.52c-.63,2.56-1.21,3.84-1.72,3.84-.23,0-.35-.2-.35-.6a8.69,8.69,0,0,1,.35-1.71c.22-.86.44-1.71.63-2.54a8.85,8.85,0,0,0,.3-1.88,2,2,0,0,0-.16-.93q-.15-.3-.3-.3a.53.53,0,0,0-.31.12,2.16,2.16,0,0,0-.36.4l-.37.55c-.12.18-.26.44-.44.77s-.32.62-.43.85l-.51,1c-.23.44-.4.77-.51,1s-.27.53-.46.92-.34.69-.46.9-.23.45-.37.7c-.27.49-.47.74-.63.74s-.33-.15-.53-.45a1.48,1.48,0,0,1-.3-.79,2.65,2.65,0,0,1,.11-.54c.2-.77.42-1.73.67-2.87a20.38,20.38,0,0,0,.39-3.89c0-1,.15-1.46.34-1.46a1,1,0,0,1,.7.46,1.65,1.65,0,0,1,.35,1,16.65,16.65,0,0,1-.26,2.12c-.18,1.05-.38,2-.62,2.93Q696.28,367.46,697.24,365.86Z"/><path class="cls-8" d="M703.45,372.19c0,.25.12.38.35.38a3.35,3.35,0,0,0,1.47-.43,5.34,5.34,0,0,1,1-.43c.19,0,.28.13.28.38s-.31.83-.94,1.34a2.88,2.88,0,0,1-1.72.76,1.7,1.7,0,0,1-1.28-.53,1.58,1.58,0,0,1-.51-1.09,6.78,6.78,0,0,1,.19-1.43c.13-.58.31-1.35.55-2.3s.42-1.74.56-2.37a4.33,4.33,0,0,1-1,.22.66.66,0,0,1-.5-.33,1.1,1.1,0,0,1-.25-.63c0-.32.69-.63,2.07-.92a17.73,17.73,0,0,0,.29-2.94c0-.4.1-.6.31-.6a1,1,0,0,1,.67.43,1.38,1.38,0,0,1,.4,1,11.59,11.59,0,0,1-.27,1.9,13,13,0,0,1,1.45-.1c.63,0,1,.17,1,.52,0,.2-.17.37-.52.5s-1.06.34-2.17.62c-.22,1.05-.5,2.26-.84,3.61A16,16,0,0,0,703.45,372.19Z"/></g></g><path class="cls-15" d="M73.1,336.7H70.4a4.68,4.68,0,0,0-1.8-9H66.2l-4.9-27.3h2.4c1.7,0,3.1-1.6,3.1-3.7a4.07,4.07,0,0,0-.8-2.4v-7.7H60.1V293H57v-6.4H51.1V293H47.9v-6.4H42v7.7a3.85,3.85,0,0,0-.8,2.4c0,2,1.4,3.7,3.1,3.7h2.4l-4.9,27.3H39.4a4.69,4.69,0,0,0-4.7,4.7,4.6,4.6,0,0,0,2.9,4.3H34.9a3.7,3.7,0,1,0,0,7.4H73.1a3.69,3.69,0,0,0,3.7-3.7A3.63,3.63,0,0,0,73.1,336.7Z"/><path class="cls-22" d="M42,291.1v3.2a3.85,3.85,0,0,0-.8,2.4c0,2,1.4,3.7,3.1,3.7h2.4l-4.9,27.3H39.4a4.69,4.69,0,0,0-4.7,4.7,4.6,4.6,0,0,0,2.9,4.3H34.9a3.7,3.7,0,1,0,0,7.4H46.6a35.27,35.27,0,0,0,8.9-17.5A35.81,35.81,0,0,0,42,291.1Z"/><path class="cls-15" d="M99,354.2H96.3a4.68,4.68,0,0,0-1.8-9H92l-4.9-27.3H72.6l-4.9,27.3H65.3a4.69,4.69,0,0,0-4.7,4.7,4.6,4.6,0,0,0,2.9,4.3H60.8a3.7,3.7,0,1,0,0,7.4H99a3.69,3.69,0,0,0,3.7-3.7A3.63,3.63,0,0,0,99,354.2Z"/><path class="cls-22" d="M72.6,317.8l-4.9,27.3H65.3a4.69,4.69,0,0,0-4.7,4.7,4.6,4.6,0,0,0,2.9,4.3H60.8a3.7,3.7,0,0,0,0,7.4H72.5A35.27,35.27,0,0,0,81.4,344C84.1,330.2,72.6,317.8,72.6,317.8Z"/><circle class="cls-15" cx="79.8" cy="308.7" r="11.6"/><line class="cls-23" x1="464.8" y1="244.3" x2="464.8" y2="251.7"/><line class="cls-23" x1="530.6" y1="281" x2="530.6" y2="288.4"/><line class="cls-23" x1="428.1" y1="315.4" x2="428.1" y2="322.8"/><line class="cls-23" x1="427.8" y1="265.8" x2="427.8" y2="279.5"/><line class="cls-23" x1="501.2" y1="266.3" x2="493.8" y2="266.3"/><line class="cls-23" x1="434.1" y1="266.3" x2="426.6" y2="266.3"/><line class="cls-23" x1="428.5" y1="351.4" x2="428.5" y2="357"/><line class="cls-23" x1="400.1" y1="356.2" x2="400.1" y2="361.9"/><line class="cls-23" x1="458" y1="356.2" x2="458" y2="361.9"/><line class="cls-23" x1="458.4" y1="356.6" x2="399.8" y2="356.6"/><path class="cls-2" d="M1011.8,259.2v13.2h-13S1008.3,271.1,1011.8,259.2Z"/><path class="cls-24" d="M92.3,158.7c7.5-16.2,23.4-27.3,40.4-32.6s35.2-5.6,53-4.8,35.7,2.6,53.4,1.1"/><path class="cls-24" d="M365.3,116.9a54.57,54.57,0,0,1,18.8,2.3c11.8,3.3,23.1,8.9,32,17.4"/><path class="cls-24" d="M432.2,180.8c41.4,34.7,101.4,45.8,152.4,28.1,9.3-3.2,18.4-7.4,26-13.6,7.4-6.1,13.9-14.3,23.3-16.3"/><path class="cls-11" d="M622.8,301.8c0,13.3-14.1,34.4-24,34.4s-24-21.2-24-34.4a24,24,0,1,1,48,0Z"/><path class="cls-25" d="M613.4,283.4v-.7a24,24,0,0,0-38.6,19,32.28,32.28,0,0,0,2.4,11.2,30.78,30.78,0,0,0,6.1.6A30.07,30.07,0,0,0,613.4,283.4Z"/><path class="cls-26" d="M606,344.1a7.2,7.2,0,0,1-14.4,0Z"/><polygon class="cls-27" points="598.8 339.9 590.8 310.5 592.7 310 598.8 332.5 604.9 310 606.7 310.5 598.8 339.9"/><path class="cls-27" d="M603.5,316.4c-1.4,0-1.7-1.6-2.1-3.4-.1-.3-.1-.6-.2-.9a3.71,3.71,0,0,0-.2.9c-.4,1.7-.8,3.4-2.1,3.4s-1.7-1.6-2.1-3.4c-.1-.3-.1-.6-.2-.9a3.71,3.71,0,0,0-.2.9c-.4,1.7-.8,3.4-2.1,3.4s-1.7-1.6-2.1-3.4a8.71,8.71,0,0,0-.5-1.9,1,1,0,0,1-.7-.9,1,1,0,0,1,1-1c1.4,0,1.7,1.6,2.1,3.4.1.3.1.6.2.9a3.71,3.71,0,0,0,.2-.9c.4-1.7.8-3.4,2.1-3.4s1.7,1.6,2.1,3.4c.1.3.1.6.2.9a3.71,3.71,0,0,0,.2-.9c.4-1.7.8-3.4,2.1-3.4s1.7,1.6,2.1,3.4c.1.3.1.6.2.9a3.71,3.71,0,0,0,.2-.9c.4-1.7.8-3.4,2.1-3.4a1,1,0,0,1,1,1,1,1,0,0,1-.7.9,8.71,8.71,0,0,0-.5,1.9C605.2,314.7,604.8,316.4,603.5,316.4Z"/><path class="cls-19" d="M610.5,329v15.7a2,2,0,0,1-2,2H589a2,2,0,0,1-2-2V329Z"/><rect class="cls-27" x="587" y="329" width="23.5" height="2"/><polygon class="cls-28" points="610.5 332.9 587 334.4 587 337.2 610.5 335.6 610.5 332.9"/><polygon class="cls-28" points="610.5 339.4 587 341 587 343.8 610.5 342.2 610.5 339.4"/><rect class="cls-29" x="630" y="206.4" width="13.2" height="13.2"/><rect class="cls-15" x="648.4" y="211" width="62.7" height="3.7"/><rect class="cls-15" x="648.4" y="230.1" width="62.7" height="3.7"/><rect class="cls-15" x="648.4" y="248.5" width="62.7" height="3.7"/><rect class="cls-29" x="630" y="225.6" width="13.2" height="13.2"/><rect class="cls-29" x="630" y="243.8" width="13.2" height="13.2"/><path class="cls-14" d="M631.8,211a19.59,19.59,0,0,1,3,4.1c.5.9.8,2.3,1.7,3a2.13,2.13,0,0,0,3.1-.4c1.7-2.1,2.6-5.4,3.9-7.8a67.93,67.93,0,0,1,6.6-9.3c1.2-1.5-.9-3.6-2.1-2.1a65.64,65.64,0,0,0-8.5,12.5c-.5,1-1.7,2.6-1.8,3.7-.2.4-.3.7-.5,1.1,1.2.2,1.5-.2.7-1.2-.2-1.9-2.8-4.4-4-5.7s-3.4.7-2.1,2.1Z"/><path class="cls-14" d="M632.4,229a19.59,19.59,0,0,1,3,4.1c.5.9.8,2.3,1.7,3a2.13,2.13,0,0,0,3.1-.4c1.7-2.1,2.6-5.4,3.9-7.8a67.93,67.93,0,0,1,6.6-9.3c1.2-1.5-.9-3.6-2.1-2.1a65.64,65.64,0,0,0-8.5,12.5c-.5,1-1.7,2.6-1.8,3.7-.2.4-.3.7-.5,1.1,1.2.2,1.5-.2.7-1.2-.2-1.9-2.8-4.4-4-5.7-1.3-1.5-3.4.6-2.1,2.1Z"/><path class="cls-14" d="M631.8,250.4a19.59,19.59,0,0,1,3,4.1c.5.9.8,2.3,1.7,3a2.13,2.13,0,0,0,3.1-.4c1.7-2.1,2.6-5.4,3.9-7.8a67.93,67.93,0,0,1,6.6-9.3c1.2-1.5-.9-3.6-2.1-2.1a65.64,65.64,0,0,0-8.5,12.5c-.5,1-1.7,2.6-1.8,3.7-.2.4-.3.7-.5,1.1,1.2.2,1.5-.2.7-1.2-.2-1.9-2.8-4.4-4-5.7-1.3-1.5-3.4.6-2.1,2.1Z"/><path class="cls-30" d="M688.6,264.8a128.83,128.83,0,0,0,46.6,61.3,62.8,62.8,0,0,0,11.5,6.7c9.4,4.2,20,5,30.3,5a98.54,98.54,0,0,0,23.6-2.4c12.7-3.2,23.9-10.4,35.5-16.4a215.44,215.44,0,0,1,43.7-17.1"/><path class="cls-30" d="M947.2,295.4c6.5-1.2,12.5,3.5,18,7.3,8.6,6,18.5,10.3,29,11.3s21.3-1.5,29.7-7.7a48.5,48.5,0,0,0,10.3-10.9c12.4-17.1,17.7-38.6,18.1-59.7.1-7.6-.3-15.3-2.3-22.7a58.21,58.21,0,0,0-14.6-25.9"/><path class="cls-2" d="M312.6,223.1s14.9,1.7,17.6,3.6,2.7,5.9,2.7,5.9l-33.8-2.1s2.9-6.5,5.4-6.9S308.3,222.2,312.6,223.1Z"/><path class="cls-2" d="M270.3,229.1s15.7-5.5,19.5-5.5-2.9,7.4-2.9,7.4l-18.5.8Z"/><path class="cls-31" d="M462.9,250.4l-2-13.1-6.5-14.4a2.66,2.66,0,0,0-1.7,1.7c-.4,1.4,3.7,14.6,3.7,14.6l-.3,13.1Z"/><path class="cls-31" d="M457.5,254.2l-.8-13.2-4.9-15.1a2.13,2.13,0,0,0-1.7,1.5c-.5,1.3,2.3,14.9,2.3,14.9l-1.3,12.9Z"/><path class="cls-31" d="M457.3,256.5l-2.8-12.9-7.1-14.1a2.17,2.17,0,0,0-1.4,1.7c-.3,1.4,4.5,14.4,4.5,14.4l-6.9,11.7Z"/><path class="cls-32" d="M442,268.6s17-10.1,17.8-11.1,8.3-16.5,8.3-16.5-5.6-21.3-8.5-19.1c-.3.1-.2,1.2-.1,2.8.2,3.7,1.8,8.2,1.5,9.6.6,3.4,1.1,6.1,1.1,6.1s-4.7,7.9-5.6,8.3-7.5,2-7.5,2a40.76,40.76,0,0,1,2.5-7.7c-.2,0-1.4-.2-1.5-.2-1.9-.4-1.7-.7-2.7-2.1-.4-.5-.4-1.2-.8-1.6-1.5,2.4-3,4.4-3,4.4a24.81,24.81,0,0,0-6,4.7,17.41,17.41,0,0,0-1.2,1.4c-3.8,4.7-5.6,12.5-5.6,12.5l-12.2,10.5-.7.6,9.3,13.5Z"/><path class="cls-33" d="M463.1,226.1s-.9.5-1.4-.2-2.2-4.7-2.2-4.7l1.2-.2S463,224.6,463.1,226.1Z"/><path class="cls-34" d="M437.8,248.2a17.41,17.41,0,0,0-1.2,1.4c-3.8,4.7-5.6,12.5-5.6,12.5l-12.2,10.5a107.61,107.61,0,0,0,11.2-5.7,10,10,0,0,1,9.4-.5,10.13,10.13,0,0,1-3.9-4.8C434.7,259.4,436.6,252.2,437.8,248.2Z"/><rect class="cls-35" x="434.98" y="232.98" width="39.7" height="6.3" transform="translate(164.43 658.38) rotate(-82.92)"/><rect class="cls-36" x="456.53" y="212.74" width="1.6" height="5.7" transform="translate(187 642.86) rotate(-82.92)"/><rect class="cls-36" x="456.83" y="211.12" width="1.6" height="4.6" transform="translate(189.42 641.24) rotate(-82.92)"/><rect class="cls-36" x="457.16" y="209.22" width="1.6" height="3.7" transform="translate(192.04 639.51) rotate(-82.92)"/><path class="cls-8" d="M459.1,209.7l-1.9-.3.2-1a1,1,0,0,1,.6-.8l.9-.5c.3-.2.7.1.6.6Z"/><polygon class="cls-37" points="454.6 214.5 460.3 215.2 459.8 214.4 455.3 213.8 454.6 214.5"/><polygon class="cls-37" points="455.4 212.3 460 212.9 459.7 212.1 456 211.6 455.4 212.3"/><polygon class="cls-37" points="456.2 210.1 459.9 210.5 459.6 209.7 456.6 209.3 456.2 210.1"/><rect class="cls-38" x="433.39" y="234.34" width="39.7" height="3.2" transform="translate(163.22 656.63) rotate(-82.92)"/><rect class="cls-8" x="451.93" y="253.17" width="0.8" height="6.3" transform="translate(142.2 673.59) rotate(-82.92)"/><rect class="cls-8" x="451.79" y="254.52" width="0.8" height="5" transform="translate(141.38 674.07) rotate(-82.92)"/><rect class="cls-8" x="450.56" y="255.66" width="0.8" height="2.5" transform="translate(140.41 672.75) rotate(-82.92)"/><rect class="cls-8" x="450.35" y="254.42" width="0.8" height="3.2" transform="translate(141.1 671.76) rotate(-82.92)"/><path class="cls-39" d="M454.7,246l.7-5.3c0-.2.2-.3.4-.3s.3.2.3.4l-.7,5.3c0,.2-.2.3-.4.3S454.7,246.2,454.7,246Zm1.2-6.8c.2,0,.3-.1.4-.3l1.3-10.6c0-.2-.1-.3-.3-.4s-.3.1-.4.3l-1.3,10.6C455.6,239,455.7,239.2,455.9,239.2Z"/><path class="cls-40" d="M395.7,317.6s-7.5,11.5-15.8,11.7a5,5,0,0,1-2.8-1h0c-8.9-5.3-26-30.6-30-36.6-.5-.8-.8-1.3-.8-1.3l-5.2-60.9s10-.2,19.7,12.6c6.1,8,18.1,35.4,26.3,54.8,4.2,10,7.5,18,8.3,20.1Z"/><path class="cls-40" d="M442.2,274.1c-4.9,6.1-10.2,12.8-15.3,19.2-7.3,9.2-14.2,17.9-18.9,23.7-13.1,13.4-24.2,16.7-29.6,12.6h0c-3-2.3-4.2-6.8-2.9-13.1l.3-1.5c.9-3.5,5.8-9.6,12.7-16.8,11.2-11.7,27.4-26.1,38.6-36.1a20.56,20.56,0,0,0,2.8,6.1C431.8,271.5,438.5,273.3,442.2,274.1Z"/><path class="cls-40" d="M342.3,410.5h-6.6l-20,.2-56.2-.2s3.4-26.5,11.6-45.2c5.3-11.9,6.7-19.2,6.7-19.2l-.3-10.6-17.3-45-1.8-4.8-2.3-5.3-.7.8c-.4-2.4-.9-4.9-1.4-7.4-2.6-14.2-4.9-16.9-4.2-17.4,5.4-12.7,5.4-13.5,8.7-18.4s9.2-8.7,11.7-9.3c4.3-1,31.6-5.6,58.9-2a9,9,0,0,1,6.7,4.4c9,16.6.6,121.7-4.2,140.2C329.9,377,342.3,410.5,342.3,410.5Z"/><path class="cls-40" d="M315.2,345.6a4.81,4.81,0,1,0,5.1-4.5A4.8,4.8,0,0,0,315.2,345.6Z"/><path class="cls-40" d="M349.9,351.3c-.9-4.3,9.7-72.7,9.7-72.7l1.1-5.6a47,47,0,0,0,.6-6.9c-.6-14.4-3.5-17.2-7.7-31.1-6.5-5.1-13-6.6-26.2-8.5,0,0-2.4,6.6-5.6,15.9-6.5,18.3-16.6,47.2-19.2,56.4-5.2,18.2-4,62.7,4.8,79.6,2.7,5.3,15.1,31.5,15.1,31.5l40.3.6C362.7,410.5,352.3,353.5,349.9,351.3Z"/><path class="cls-40" d="M255.9,242c.1-.1,12.8-8.4,12.8-8.4s3.6,24.3-.3,35.7c-3.5,9.9,8.9,12.5,5.7,22.1l-4.1,2.5-13.1,26.2,40,18.1c16.7,7.2,21.9,31,5.8,24.1-18.9-12.7-69.4-17.2-75.3-29.9C220.1,316.7,251.4,248.5,255.9,242Z"/><path class="cls-41" d="M259.5,411s3.3-27.1,11.5-45.7c5.3-11.9,6.7-19.2,6.7-19.2l-.3-10.6-17.3-45,4.5-21.1s9.4,51.6,14.7,63.1,18,19.6,18,19.6-15.5-2.1-21.3,9.8S259.5,411,259.5,411Z"/><path class="cls-41" d="M426.9,293.3c-7.3,9.2-14.2,17.9-18.9,23.7-13.1,13.4-24.2,16.7-29.6,12.6h0c-8.9-5.3-26-30.6-30-36.6l-1.1-12.4s15.8,23.7,28.1,35.9c4.5,4.5,8.5,7.4,11.2,7.1,2.3-.3,5.9-2.3,10.2-5.3C406.6,311.5,419.8,299.8,426.9,293.3Z"/><path class="cls-32" d="M448.9,249.2a14.86,14.86,0,0,1-3.1-2,7.47,7.47,0,0,1-2.6-3.1c1-1.4,2.5-3.6,4.1-6.1,2.9-4.5,7.3-11.3,9.2-9.4s-6.5,18.1-6.5,18.1A3.87,3.87,0,0,0,448.9,249.2Z"/><path class="cls-33" d="M452.5,231.6a16.65,16.65,0,0,0,2.6,1.2c.6,0,1.9-3.9,1.9-3.9l-2-1C455,227.8,452.9,231,452.5,231.6Z"/><path class="cls-42" d="M347.8,194c-10,22.3-29.8,25.9-32.8,29.4-2.3,2.8-8.7,6.9-8.9,8.9-.7,8.9,10.5,4.5,4.7,14.7-5.4,9.5-3.2,27.6-13.7,27.5h-.3l-20.3-.2s51.8-33.7-9.2-73.8c-10.8-7.1,1.6-26.1-4.4-39.3-7.7-16.8,43.9-49,43.9-49l1.1-7.5a47.31,47.31,0,0,1,7.9-.6c7.3,0,18.2,1.7,26,10.1C349.4,122.7,363.3,156.4,347.8,194Z"/><path class="cls-42" d="M313.6,106s-1.4,19.9-12,29.9-35.4,28.8-34.6,43.5,13.5,12.6,20.5,28.7c.6,1.5,7.5.4,8.6,2.8,2.6-3.2,11.5,15.1.5,16.6,2.3,5.5,1,12.9,3.6,19.4,3.2,7.7-6,11.8-5.9,12.9.2,1.9-4.8,8.8-10.4,12.3a12.83,12.83,0,0,1-2.9,1.4,9.77,9.77,0,0,1-2.3.6c-1.4.1,1.8,13.1-.4,8.3-2.9-6.2,4.1-21,8.6-34.8,1.7-5.2,6.3-9.5,6.1-13.9-.2-4.8-5.8-8.5-9.8-11.3-22.3-15.4-31.4-38.3-30.8-54.6,1-29.3,15.9-70.8,56.2-62.9A29.87,29.87,0,0,1,313.6,106Z"/><path class="cls-42" d="M289.9,243s-16,20.5-12.5,43.6-6.8,51.4-6.8,51.4,11.4,2.5,24.1-14.8,26.6-41.6,26.3-55.6-6.7-25.2-9-27.2C307.2,236.2,289.9,243,289.9,243Z"/><path class="cls-43" d="M311.6,114.6s37.1,6.2,32.6,45-25.3,54.6-24.8,52.9,17.4-33.2,12.9-52.3S317.8,120.7,311.6,114.6Z"/><path class="cls-43" d="M303.5,252.5s17.8,10.5,7.7,29.9-17.5,31-16.9,30.2,9.2-21.4,10.7-32.2S305.4,256.9,303.5,252.5Z"/><path class="cls-14" d="M306.2,236.5l-12.9.6a2,2,0,0,1-2.1-1.9l-.1-1.3a2,2,0,0,1,1.9-2.1l13-.5a2,2,0,0,1,2.1,1.9l.1,1.3A2.07,2.07,0,0,1,306.2,236.5Z"/></g></g></svg>